<svg xmlns="http://www.w3.org/2000/svg" xmlns:xlink="http://www.w3.org/1999/xlink" width="800" zoomAndPan="magnify" viewBox="0 0 600 225" height="300" preserveAspectRatio="xMidYMid meet" version="1.0"><defs><g/><clipPath id="3970d6bf83"><path d="M 42.453125 40.0625 L 300 40.0625 L 300 75 L 42.453125 75 Z M 42.453125 40.0625 " clip-rule="nonzero"/></clipPath><clipPath id="972acb8c94"><path d="M 42.453125 76 L 171 76 L 171 112 L 42.453125 112 Z M 42.453125 76 " clip-rule="nonzero"/></clipPath><clipPath id="c660ea7856"><path d="M 42.453125 113 L 171 113 L 171 149 L 42.453125 149 Z M 42.453125 113 " clip-rule="nonzero"/></clipPath><clipPath id="0c9ee3b6b2"><path d="M 42.453125 150 L 171 150 L 171 185 L 42.453125 185 Z M 42.453125 150 " clip-rule="nonzero"/></clipPath><clipPath id="3b94eb3610"><path d="M 319.953125 40.0625 L 577.953125 40.0625 L 577.953125 75 L 319.953125 75 Z M 319.953125 40.0625 " clip-rule="nonzero"/></clipPath><clipPath id="bdba9653d1"><path d="M 319.953125 76 L 448 76 L 448 185 L 319.953125 185 Z M 319.953125 76 " clip-rule="nonzero"/></clipPath><clipPath id="2dc0eeb220"><path d="M 449 76 L 577.953125 76 L 577.953125 185 L 449 185 Z M 449 76 " clip-rule="nonzero"/></clipPath><clipPath id="aa9cb0e5f0"><path d="M 272 109 L 353.605469 109 L 353.605469 154 L 272 154 Z M 272 109 " clip-rule="nonzero"/></clipPath><clipPath id="648b91905f"><path d="M 369 79.097656 L 393.542969 79.097656 L 393.542969 109 L 369 109 Z M 369 79.097656 " clip-rule="nonzero"/></clipPath><clipPath id="1472c8db28"><path d="M 368.792969 79.097656 L 393.542969 79.097656 L 393.542969 109.097656 L 368.792969 109.097656 Z M 368.792969 79.097656 " clip-rule="nonzero"/></clipPath><clipPath id="4730c1c296"><path d="M 369 116.25 L 393.542969 116.25 L 393.542969 146 L 369 146 Z M 369 116.25 " clip-rule="nonzero"/></clipPath><clipPath id="c9349f6056"><path d="M 368.792969 116.25 L 393.542969 116.25 L 393.542969 146.25 L 368.792969 146.25 Z M 368.792969 116.25 " clip-rule="nonzero"/></clipPath><clipPath id="53c062efa9"><path d="M 369 153.304688 L 393.542969 153.304688 L 393.542969 183 L 369 183 Z M 369 153.304688 " clip-rule="nonzero"/></clipPath><clipPath id="d892bb70d3"><path d="M 368.792969 153.304688 L 393.542969 153.304688 L 393.542969 183.304688 L 368.792969 183.304688 Z M 368.792969 153.304688 " clip-rule="nonzero"/></clipPath></defs><g clip-path="url(#3970d6bf83)"><path fill="#0a0b18" d="M 42.453125 40.0625 L 42.453125 74.472656 L 170.019531 74.472656 L 170.019531 40.0625 Z M 172.433594 40.0625 L 172.433594 74.472656 L 300 74.472656 L 300 40.0625 Z M 172.433594 40.0625 " fill-opacity="1" fill-rule="nonzero"/></g><g clip-path="url(#972acb8c94)"><path fill="#818bf2" d="M 42.453125 76.886719 L 42.453125 111.292969 L 170.019531 111.292969 L 170.019531 76.886719 Z M 42.453125 76.886719 " fill-opacity="1" fill-rule="nonzero"/></g><path fill="#dfe2fc" d="M 172.433594 76.886719 L 172.433594 111.292969 L 300 111.292969 L 300 76.886719 Z M 172.433594 76.886719 " fill-opacity="1" fill-rule="nonzero"/><g clip-path="url(#c660ea7856)"><path fill="#7ed957" d="M 42.453125 113.707031 L 42.453125 148.113281 L 170.019531 148.113281 L 170.019531 113.707031 Z M 42.453125 113.707031 " fill-opacity="1" fill-rule="nonzero"/></g><path fill="#d8ffc7" d="M 172.433594 113.707031 L 172.433594 148.113281 L 300 148.113281 L 300 113.707031 Z M 172.433594 113.707031 " fill-opacity="1" fill-rule="nonzero"/><g clip-path="url(#0c9ee3b6b2)"><path fill="#ffde59" d="M 42.453125 150.527344 L 42.453125 184.9375 L 170.019531 184.9375 L 170.019531 150.527344 Z M 42.453125 150.527344 " fill-opacity="1" fill-rule="nonzero"/></g><path fill="#fff4ca" d="M 172.433594 150.527344 L 172.433594 184.9375 L 300 184.9375 L 300 150.527344 Z M 172.433594 150.527344 " fill-opacity="1" fill-rule="nonzero"/><g fill="#ffffff" fill-opacity="1"><g transform="translate(86.737358, 61.630579)"><g><path d="M 7.546875 -7.71875 L 4.734375 -7.71875 L 4.734375 0 L 2.953125 0 L 2.953125 -7.71875 L 0.171875 -7.71875 L 0.171875 -9.15625 L 7.546875 -9.15625 Z M 7.546875 -7.71875 "/></g></g><g transform="translate(94.465078, 61.630579)"><g><path d="M 7.203125 -3.90625 C 7.203125 -3.320312 7.125 -2.78125 6.96875 -2.28125 C 6.820312 -1.789062 6.597656 -1.363281 6.296875 -1 C 6.003906 -0.644531 5.648438 -0.367188 5.234375 -0.171875 C 4.816406 0.0234375 4.34375 0.125 3.8125 0.125 C 3.28125 0.125 2.804688 0.0234375 2.390625 -0.171875 C 1.984375 -0.367188 1.640625 -0.644531 1.359375 -1 C 1.078125 -1.363281 0.863281 -1.789062 0.71875 -2.28125 C 0.570312 -2.78125 0.5 -3.320312 0.5 -3.90625 L 0.5 -5.234375 C 0.5 -5.816406 0.570312 -6.351562 0.71875 -6.84375 C 0.863281 -7.34375 1.078125 -7.769531 1.359375 -8.125 C 1.640625 -8.488281 1.984375 -8.769531 2.390625 -8.96875 C 2.804688 -9.175781 3.273438 -9.28125 3.796875 -9.28125 C 4.335938 -9.28125 4.816406 -9.175781 5.234375 -8.96875 C 5.648438 -8.769531 6.003906 -8.488281 6.296875 -8.125 C 6.597656 -7.769531 6.820312 -7.34375 6.96875 -6.84375 C 7.125 -6.351562 7.203125 -5.816406 7.203125 -5.234375 Z M 5.421875 -5.25 C 5.421875 -5.625 5.390625 -5.96875 5.328125 -6.28125 C 5.265625 -6.59375 5.164062 -6.863281 5.03125 -7.09375 C 4.90625 -7.320312 4.738281 -7.5 4.53125 -7.625 C 4.332031 -7.75 4.085938 -7.8125 3.796875 -7.8125 C 3.515625 -7.8125 3.273438 -7.75 3.078125 -7.625 C 2.890625 -7.5 2.738281 -7.320312 2.625 -7.09375 C 2.507812 -6.863281 2.425781 -6.59375 2.375 -6.28125 C 2.320312 -5.96875 2.296875 -5.625 2.296875 -5.25 L 2.296875 -3.90625 C 2.296875 -3.53125 2.320312 -3.1875 2.375 -2.875 C 2.425781 -2.5625 2.507812 -2.289062 2.625 -2.0625 C 2.738281 -1.832031 2.890625 -1.648438 3.078125 -1.515625 C 3.273438 -1.390625 3.519531 -1.328125 3.8125 -1.328125 C 4.09375 -1.328125 4.332031 -1.390625 4.53125 -1.515625 C 4.738281 -1.648438 4.90625 -1.832031 5.03125 -2.0625 C 5.164062 -2.289062 5.265625 -2.5625 5.328125 -2.875 C 5.390625 -3.1875 5.421875 -3.53125 5.421875 -3.90625 Z M 5.421875 -5.25 "/></g></g><g transform="translate(102.192798, 61.630579)"><g><path d="M 2.703125 -3.359375 L 2.703125 0 L 0.9375 0 L 0.9375 -9.15625 L 4.0625 -9.15625 C 4.5625 -9.15625 5.007812 -9.082031 5.40625 -8.9375 C 5.8125 -8.789062 6.15625 -8.585938 6.4375 -8.328125 C 6.726562 -8.078125 6.945312 -7.769531 7.09375 -7.40625 C 7.25 -7.039062 7.328125 -6.640625 7.328125 -6.203125 C 7.328125 -5.796875 7.25 -5.414062 7.09375 -5.0625 C 6.945312 -4.71875 6.726562 -4.414062 6.4375 -4.15625 C 6.15625 -3.90625 5.8125 -3.707031 5.40625 -3.5625 C 5.007812 -3.425781 4.5625 -3.359375 4.0625 -3.359375 Z M 2.703125 -4.796875 L 4.0625 -4.796875 C 4.3125 -4.796875 4.53125 -4.832031 4.71875 -4.90625 C 4.90625 -4.976562 5.0625 -5.078125 5.1875 -5.203125 C 5.3125 -5.335938 5.398438 -5.488281 5.453125 -5.65625 C 5.515625 -5.832031 5.546875 -6.007812 5.546875 -6.1875 C 5.546875 -6.40625 5.515625 -6.601562 5.453125 -6.78125 C 5.398438 -6.96875 5.3125 -7.128906 5.1875 -7.265625 C 5.0625 -7.410156 4.90625 -7.519531 4.71875 -7.59375 C 4.53125 -7.675781 4.3125 -7.71875 4.0625 -7.71875 L 2.703125 -7.71875 Z M 2.703125 -4.796875 "/></g></g><g transform="translate(109.920518, 61.630579)"><g><path d="M 1.21875 -9.15625 L 6.5 -9.15625 L 6.5 -7.71875 L 4.71875 -7.71875 L 4.71875 -1.421875 L 6.5 -1.421875 L 6.5 0 L 1.21875 0 L 1.21875 -1.421875 L 2.953125 -1.421875 L 2.953125 -7.71875 L 1.21875 -7.71875 Z M 1.21875 -9.15625 "/></g></g><g transform="translate(117.648238, 61.630579)"><g><path d="M 7.171875 -2.859375 C 7.148438 -2.398438 7.050781 -1.984375 6.875 -1.609375 C 6.707031 -1.242188 6.476562 -0.929688 6.1875 -0.671875 C 5.90625 -0.421875 5.566406 -0.222656 5.171875 -0.078125 C 4.785156 0.0546875 4.351562 0.125 3.875 0.125 C 3.332031 0.125 2.847656 0.0234375 2.421875 -0.171875 C 2.003906 -0.367188 1.65625 -0.644531 1.375 -1 C 1.09375 -1.363281 0.875 -1.796875 0.71875 -2.296875 C 0.570312 -2.796875 0.5 -3.347656 0.5 -3.953125 L 0.5 -5.1875 C 0.5 -5.789062 0.578125 -6.34375 0.734375 -6.84375 C 0.890625 -7.351562 1.113281 -7.785156 1.40625 -8.140625 C 1.707031 -8.503906 2.066406 -8.785156 2.484375 -8.984375 C 2.898438 -9.179688 3.367188 -9.28125 3.890625 -9.28125 C 4.390625 -9.28125 4.832031 -9.207031 5.21875 -9.0625 C 5.613281 -8.925781 5.945312 -8.722656 6.21875 -8.453125 C 6.5 -8.191406 6.71875 -7.867188 6.875 -7.484375 C 7.039062 -7.109375 7.144531 -6.679688 7.1875 -6.203125 L 5.421875 -6.203125 C 5.410156 -6.472656 5.367188 -6.710938 5.296875 -6.921875 C 5.234375 -7.128906 5.140625 -7.300781 5.015625 -7.4375 C 4.890625 -7.570312 4.734375 -7.671875 4.546875 -7.734375 C 4.367188 -7.804688 4.148438 -7.84375 3.890625 -7.84375 C 3.609375 -7.84375 3.367188 -7.785156 3.171875 -7.671875 C 2.972656 -7.554688 2.804688 -7.382812 2.671875 -7.15625 C 2.546875 -6.925781 2.445312 -6.644531 2.375 -6.3125 C 2.3125 -5.988281 2.28125 -5.617188 2.28125 -5.203125 L 2.28125 -3.953125 C 2.28125 -3.054688 2.40625 -2.390625 2.65625 -1.953125 C 2.914062 -1.523438 3.320312 -1.3125 3.875 -1.3125 C 4.332031 -1.3125 4.695312 -1.429688 4.96875 -1.671875 C 5.238281 -1.921875 5.382812 -2.316406 5.40625 -2.859375 Z M 7.171875 -2.859375 "/></g></g></g><g fill="#ffffff" fill-opacity="1"><g transform="translate(212.862464, 61.630579)"><g><path d="M 5.296875 -3.640625 L 5.96875 -9.15625 L 7.59375 -9.15625 L 6.3125 0 L 4.71875 0 L 3.859375 -5.40625 L 3.015625 0 L 1.421875 0 L 0.15625 -9.15625 L 1.78125 -9.15625 L 2.4375 -3.671875 L 3.21875 -9.15625 L 4.46875 -9.15625 Z M 5.296875 -3.640625 "/></g></g><g transform="translate(220.590184, 61.630579)"><g><path d="M 6.453125 -4.015625 L 2.703125 -4.015625 L 2.703125 -1.421875 L 7.09375 -1.421875 L 7.09375 0 L 0.921875 0 L 0.921875 -9.15625 L 7.078125 -9.15625 L 7.078125 -7.71875 L 2.703125 -7.71875 L 2.703125 -5.40625 L 6.453125 -5.40625 Z M 6.453125 -4.015625 "/></g></g><g transform="translate(228.317904, 61.630579)"><g><path d="M 1.21875 -9.15625 L 6.5 -9.15625 L 6.5 -7.71875 L 4.71875 -7.71875 L 4.71875 -1.421875 L 6.5 -1.421875 L 6.5 0 L 1.21875 0 L 1.21875 -1.421875 L 2.953125 -1.421875 L 2.953125 -7.71875 L 1.21875 -7.71875 Z M 1.21875 -9.15625 "/></g></g><g transform="translate(236.045624, 61.630579)"><g><path d="M 7.109375 -1.0625 C 7.003906 -0.925781 6.851562 -0.785156 6.65625 -0.640625 C 6.457031 -0.503906 6.222656 -0.378906 5.953125 -0.265625 C 5.679688 -0.148438 5.375 -0.0546875 5.03125 0.015625 C 4.695312 0.0859375 4.335938 0.125 3.953125 0.125 C 3.441406 0.125 2.972656 0.0351562 2.546875 -0.140625 C 2.128906 -0.328125 1.769531 -0.59375 1.46875 -0.9375 C 1.175781 -1.289062 0.945312 -1.71875 0.78125 -2.21875 C 0.625 -2.726562 0.546875 -3.304688 0.546875 -3.953125 L 0.546875 -5.1875 C 0.546875 -5.832031 0.628906 -6.40625 0.796875 -6.90625 C 0.972656 -7.414062 1.207031 -7.84375 1.5 -8.1875 C 1.800781 -8.539062 2.15625 -8.8125 2.5625 -9 C 2.96875 -9.1875 3.40625 -9.28125 3.875 -9.28125 C 4.394531 -9.28125 4.84375 -9.210938 5.21875 -9.078125 C 5.601562 -8.953125 5.925781 -8.765625 6.1875 -8.515625 C 6.457031 -8.273438 6.664062 -7.976562 6.8125 -7.625 C 6.96875 -7.269531 7.066406 -6.875 7.109375 -6.4375 L 5.390625 -6.4375 C 5.328125 -6.90625 5.179688 -7.257812 4.953125 -7.5 C 4.734375 -7.738281 4.390625 -7.859375 3.921875 -7.859375 C 3.691406 -7.859375 3.476562 -7.796875 3.28125 -7.671875 C 3.09375 -7.554688 2.925781 -7.390625 2.78125 -7.171875 C 2.644531 -6.953125 2.535156 -6.675781 2.453125 -6.34375 C 2.367188 -6.019531 2.328125 -5.640625 2.328125 -5.203125 L 2.328125 -3.953125 C 2.328125 -3.097656 2.46875 -2.441406 2.75 -1.984375 C 3.03125 -1.523438 3.460938 -1.296875 4.046875 -1.296875 C 4.179688 -1.296875 4.316406 -1.304688 4.453125 -1.328125 C 4.585938 -1.347656 4.710938 -1.375 4.828125 -1.40625 C 4.941406 -1.445312 5.046875 -1.488281 5.140625 -1.53125 C 5.234375 -1.582031 5.300781 -1.640625 5.34375 -1.703125 L 5.34375 -3.359375 L 3.828125 -3.359375 L 3.828125 -4.671875 L 7.109375 -4.671875 Z M 7.109375 -1.0625 "/></g></g><g transform="translate(243.773344, 61.630579)"><g><path d="M 6.859375 0 L 5.125 0 L 5.125 -3.96875 L 2.53125 -3.96875 L 2.53125 0 L 0.765625 0 L 0.765625 -9.15625 L 2.53125 -9.15625 L 2.53125 -5.40625 L 5.125 -5.40625 L 5.125 -9.15625 L 6.859375 -9.15625 Z M 6.859375 0 "/></g></g><g transform="translate(251.501064, 61.630579)"><g><path d="M 7.546875 -7.71875 L 4.734375 -7.71875 L 4.734375 0 L 2.953125 0 L 2.953125 -7.71875 L 0.171875 -7.71875 L 0.171875 -9.15625 L 7.546875 -9.15625 Z M 7.546875 -7.71875 "/></g></g></g><g fill="#000000" fill-opacity="1"><g transform="translate(98.340465, 98.451944)"><g><path d="M 4.859375 0 L 3.703125 0 L 3.703125 -7.671875 L 1.3125 -6.765625 L 1.3125 -7.828125 L 4.765625 -9.15625 L 4.859375 -9.15625 Z M 4.859375 0 "/></g></g><g transform="translate(106.068185, 98.451944)"><g><path d="M 6.84375 -3.5 C 6.84375 -2.914062 6.773438 -2.398438 6.640625 -1.953125 C 6.503906 -1.503906 6.3125 -1.125 6.0625 -0.8125 C 5.8125 -0.507812 5.503906 -0.273438 5.140625 -0.109375 C 4.773438 0.046875 4.359375 0.125 3.890625 0.125 C 3.421875 0.125 3.003906 0.046875 2.640625 -0.109375 C 2.273438 -0.273438 1.960938 -0.507812 1.703125 -0.8125 C 1.441406 -1.125 1.242188 -1.503906 1.109375 -1.953125 C 0.972656 -2.398438 0.90625 -2.914062 0.90625 -3.5 L 0.90625 -5.640625 C 0.90625 -6.222656 0.972656 -6.738281 1.109375 -7.1875 C 1.242188 -7.644531 1.4375 -8.023438 1.6875 -8.328125 C 1.945312 -8.640625 2.257812 -8.875 2.625 -9.03125 C 2.988281 -9.195312 3.40625 -9.28125 3.875 -9.28125 C 4.34375 -9.28125 4.757812 -9.195312 5.125 -9.03125 C 5.488281 -8.875 5.796875 -8.640625 6.046875 -8.328125 C 6.304688 -8.023438 6.503906 -7.644531 6.640625 -7.1875 C 6.773438 -6.738281 6.84375 -6.222656 6.84375 -5.640625 Z M 2.078125 -3.734375 L 5.640625 -6.46875 C 5.578125 -7.070312 5.398438 -7.53125 5.109375 -7.84375 C 4.828125 -8.164062 4.414062 -8.328125 3.875 -8.328125 C 3.257812 -8.328125 2.804688 -8.117188 2.515625 -7.703125 C 2.222656 -7.296875 2.078125 -6.695312 2.078125 -5.90625 Z M 5.671875 -5.359375 L 2.109375 -2.640625 C 2.179688 -2.046875 2.363281 -1.59375 2.65625 -1.28125 C 2.945312 -0.96875 3.359375 -0.8125 3.890625 -0.8125 C 4.503906 -0.8125 4.953125 -1.019531 5.234375 -1.4375 C 5.523438 -1.863281 5.671875 -2.46875 5.671875 -3.25 Z M 5.671875 -5.359375 "/></g></g></g><g fill="#000000" fill-opacity="1"><g transform="translate(228.322096, 98.451944)"><g><path d="M 2.453125 -5.140625 L 3.28125 -5.140625 C 3.570312 -5.140625 3.828125 -5.175781 4.046875 -5.25 C 4.273438 -5.332031 4.46875 -5.441406 4.625 -5.578125 C 4.78125 -5.722656 4.894531 -5.890625 4.96875 -6.078125 C 5.050781 -6.273438 5.09375 -6.488281 5.09375 -6.71875 C 5.09375 -7.25 4.957031 -7.648438 4.6875 -7.921875 C 4.414062 -8.191406 4.015625 -8.328125 3.484375 -8.328125 C 3.242188 -8.328125 3.019531 -8.289062 2.8125 -8.21875 C 2.613281 -8.144531 2.441406 -8.035156 2.296875 -7.890625 C 2.148438 -7.753906 2.035156 -7.585938 1.953125 -7.390625 C 1.867188 -7.203125 1.828125 -6.988281 1.828125 -6.75 L 0.671875 -6.75 C 0.671875 -7.101562 0.738281 -7.429688 0.875 -7.734375 C 1.007812 -8.046875 1.195312 -8.316406 1.4375 -8.546875 C 1.6875 -8.773438 1.984375 -8.953125 2.328125 -9.078125 C 2.679688 -9.210938 3.066406 -9.28125 3.484375 -9.28125 C 3.898438 -9.28125 4.273438 -9.222656 4.609375 -9.109375 C 4.953125 -9.003906 5.242188 -8.84375 5.484375 -8.625 C 5.734375 -8.40625 5.921875 -8.132812 6.046875 -7.8125 C 6.179688 -7.488281 6.25 -7.113281 6.25 -6.6875 C 6.25 -6.507812 6.222656 -6.328125 6.171875 -6.140625 C 6.117188 -5.953125 6.035156 -5.769531 5.921875 -5.59375 C 5.804688 -5.414062 5.660156 -5.25 5.484375 -5.09375 C 5.304688 -4.9375 5.09375 -4.804688 4.84375 -4.703125 C 5.144531 -4.597656 5.394531 -4.46875 5.59375 -4.3125 C 5.789062 -4.164062 5.945312 -3.992188 6.0625 -3.796875 C 6.1875 -3.609375 6.269531 -3.40625 6.3125 -3.1875 C 6.363281 -2.96875 6.390625 -2.753906 6.390625 -2.546875 C 6.390625 -2.117188 6.316406 -1.738281 6.171875 -1.40625 C 6.023438 -1.082031 5.820312 -0.804688 5.5625 -0.578125 C 5.300781 -0.347656 4.992188 -0.171875 4.640625 -0.046875 C 4.285156 0.0664062 3.90625 0.125 3.5 0.125 C 3.09375 0.125 2.710938 0.0664062 2.359375 -0.046875 C 2.003906 -0.160156 1.695312 -0.328125 1.4375 -0.546875 C 1.175781 -0.765625 0.96875 -1.03125 0.8125 -1.34375 C 0.664062 -1.65625 0.59375 -2.015625 0.59375 -2.421875 L 1.75 -2.421875 C 1.75 -2.179688 1.789062 -1.960938 1.875 -1.765625 C 1.957031 -1.566406 2.070312 -1.394531 2.21875 -1.25 C 2.375 -1.113281 2.554688 -1.007812 2.765625 -0.9375 C 2.984375 -0.863281 3.226562 -0.828125 3.5 -0.828125 C 3.757812 -0.828125 3.992188 -0.859375 4.203125 -0.921875 C 4.421875 -0.992188 4.601562 -1.097656 4.75 -1.234375 C 4.90625 -1.378906 5.023438 -1.554688 5.109375 -1.765625 C 5.191406 -1.984375 5.234375 -2.238281 5.234375 -2.53125 C 5.234375 -2.8125 5.1875 -3.054688 5.09375 -3.265625 C 5 -3.472656 4.863281 -3.644531 4.6875 -3.78125 C 4.519531 -3.914062 4.316406 -4.015625 4.078125 -4.078125 C 3.835938 -4.148438 3.570312 -4.1875 3.28125 -4.1875 L 2.453125 -4.1875 Z M 2.453125 -5.140625 "/></g></g><g transform="translate(236.049816, 98.451944)"><g><path d="M 0.28125 -7.5 C 0.28125 -7.738281 0.316406 -7.96875 0.390625 -8.1875 C 0.460938 -8.40625 0.566406 -8.59375 0.703125 -8.75 C 0.847656 -8.914062 1.023438 -9.046875 1.234375 -9.140625 C 1.441406 -9.234375 1.679688 -9.28125 1.953125 -9.28125 C 2.234375 -9.28125 2.476562 -9.234375 2.6875 -9.140625 C 2.894531 -9.046875 3.066406 -8.914062 3.203125 -8.75 C 3.347656 -8.59375 3.457031 -8.40625 3.53125 -8.1875 C 3.601562 -7.96875 3.640625 -7.738281 3.640625 -7.5 L 3.640625 -7.015625 C 3.640625 -6.773438 3.601562 -6.546875 3.53125 -6.328125 C 3.457031 -6.117188 3.347656 -5.929688 3.203125 -5.765625 C 3.066406 -5.609375 2.894531 -5.484375 2.6875 -5.390625 C 2.476562 -5.296875 2.238281 -5.25 1.96875 -5.25 C 1.695312 -5.25 1.453125 -5.296875 1.234375 -5.390625 C 1.023438 -5.484375 0.847656 -5.609375 0.703125 -5.765625 C 0.566406 -5.929688 0.460938 -6.117188 0.390625 -6.328125 C 0.316406 -6.546875 0.28125 -6.773438 0.28125 -7.015625 Z M 1.140625 -7.015625 C 1.140625 -6.890625 1.15625 -6.765625 1.1875 -6.640625 C 1.21875 -6.523438 1.265625 -6.421875 1.328125 -6.328125 C 1.398438 -6.234375 1.484375 -6.15625 1.578125 -6.09375 C 1.679688 -6.039062 1.8125 -6.015625 1.96875 -6.015625 C 2.113281 -6.015625 2.238281 -6.039062 2.34375 -6.09375 C 2.445312 -6.15625 2.53125 -6.234375 2.59375 -6.328125 C 2.65625 -6.421875 2.703125 -6.523438 2.734375 -6.640625 C 2.765625 -6.765625 2.78125 -6.890625 2.78125 -7.015625 L 2.78125 -7.5 C 2.78125 -7.632812 2.765625 -7.765625 2.734375 -7.890625 C 2.703125 -8.015625 2.648438 -8.125 2.578125 -8.21875 C 2.515625 -8.3125 2.429688 -8.382812 2.328125 -8.4375 C 2.234375 -8.5 2.109375 -8.53125 1.953125 -8.53125 C 1.804688 -8.53125 1.679688 -8.5 1.578125 -8.4375 C 1.472656 -8.382812 1.390625 -8.3125 1.328125 -8.21875 C 1.265625 -8.125 1.21875 -8.015625 1.1875 -7.890625 C 1.15625 -7.765625 1.140625 -7.632812 1.140625 -7.5 Z M 4.0625 -2.125 C 4.0625 -2.363281 4.097656 -2.585938 4.171875 -2.796875 C 4.242188 -3.015625 4.347656 -3.203125 4.484375 -3.359375 C 4.628906 -3.523438 4.804688 -3.65625 5.015625 -3.75 C 5.222656 -3.84375 5.460938 -3.890625 5.734375 -3.890625 C 6.015625 -3.890625 6.257812 -3.84375 6.46875 -3.75 C 6.675781 -3.65625 6.847656 -3.523438 6.984375 -3.359375 C 7.128906 -3.203125 7.238281 -3.015625 7.3125 -2.796875 C 7.394531 -2.585938 7.4375 -2.363281 7.4375 -2.125 L 7.4375 -1.640625 C 7.4375 -1.398438 7.394531 -1.171875 7.3125 -0.953125 C 7.238281 -0.742188 7.128906 -0.554688 6.984375 -0.390625 C 6.847656 -0.234375 6.675781 -0.109375 6.46875 -0.015625 C 6.257812 0.078125 6.019531 0.125 5.75 0.125 C 5.476562 0.125 5.234375 0.078125 5.015625 -0.015625 C 4.804688 -0.109375 4.628906 -0.234375 4.484375 -0.390625 C 4.347656 -0.554688 4.242188 -0.742188 4.171875 -0.953125 C 4.097656 -1.171875 4.0625 -1.398438 4.0625 -1.640625 Z M 4.921875 -1.640625 C 4.921875 -1.503906 4.9375 -1.375 4.96875 -1.25 C 5 -1.132812 5.046875 -1.03125 5.109375 -0.9375 C 5.179688 -0.84375 5.269531 -0.765625 5.375 -0.703125 C 5.476562 -0.648438 5.601562 -0.625 5.75 -0.625 C 5.894531 -0.625 6.019531 -0.648438 6.125 -0.703125 C 6.226562 -0.765625 6.3125 -0.84375 6.375 -0.9375 C 6.4375 -1.03125 6.484375 -1.132812 6.515625 -1.25 C 6.546875 -1.375 6.5625 -1.503906 6.5625 -1.640625 L 6.5625 -2.125 C 6.5625 -2.25 6.546875 -2.375 6.515625 -2.5 C 6.484375 -2.625 6.4375 -2.734375 6.375 -2.828125 C 6.3125 -2.921875 6.222656 -2.992188 6.109375 -3.046875 C 6.003906 -3.109375 5.878906 -3.140625 5.734375 -3.140625 C 5.585938 -3.140625 5.460938 -3.109375 5.359375 -3.046875 C 5.253906 -2.992188 5.171875 -2.921875 5.109375 -2.828125 C 5.046875 -2.734375 5 -2.625 4.96875 -2.5 C 4.9375 -2.375 4.921875 -2.25 4.921875 -2.125 Z M 2.5 -1.1875 L 1.796875 -1.578125 L 5.375 -8.09375 L 6.0625 -7.703125 Z M 2.5 -1.1875 "/></g></g></g><g fill="#000000" fill-opacity="1"><g transform="translate(102.196989, 135.273368)"><g><path d="M 5.8125 -3.078125 L 7.078125 -3.078125 L 7.078125 -2.125 L 5.8125 -2.125 L 5.8125 0 L 4.640625 0 L 4.640625 -2.125 L 0.46875 -2.125 L 0.46875 -2.8125 L 4.578125 -9.15625 L 5.8125 -9.15625 Z M 1.765625 -3.078125 L 4.640625 -3.078125 L 4.640625 -7.609375 L 4.453125 -7.25 Z M 1.765625 -3.078125 "/></g></g></g><g fill="#000000" fill-opacity="1"><g transform="translate(228.322096, 135.273368)"><g><path d="M 4.859375 0 L 3.703125 0 L 3.703125 -7.671875 L 1.3125 -6.765625 L 1.3125 -7.828125 L 4.765625 -9.15625 L 4.859375 -9.15625 Z M 4.859375 0 "/></g></g><g transform="translate(236.049816, 135.273368)"><g><path d="M 0.28125 -7.5 C 0.28125 -7.738281 0.316406 -7.96875 0.390625 -8.1875 C 0.460938 -8.40625 0.566406 -8.59375 0.703125 -8.75 C 0.847656 -8.914062 1.023438 -9.046875 1.234375 -9.140625 C 1.441406 -9.234375 1.679688 -9.28125 1.953125 -9.28125 C 2.234375 -9.28125 2.476562 -9.234375 2.6875 -9.140625 C 2.894531 -9.046875 3.066406 -8.914062 3.203125 -8.75 C 3.347656 -8.59375 3.457031 -8.40625 3.53125 -8.1875 C 3.601562 -7.96875 3.640625 -7.738281 3.640625 -7.5 L 3.640625 -7.015625 C 3.640625 -6.773438 3.601562 -6.546875 3.53125 -6.328125 C 3.457031 -6.117188 3.347656 -5.929688 3.203125 -5.765625 C 3.066406 -5.609375 2.894531 -5.484375 2.6875 -5.390625 C 2.476562 -5.296875 2.238281 -5.25 1.96875 -5.25 C 1.695312 -5.25 1.453125 -5.296875 1.234375 -5.390625 C 1.023438 -5.484375 0.847656 -5.609375 0.703125 -5.765625 C 0.566406 -5.929688 0.460938 -6.117188 0.390625 -6.328125 C 0.316406 -6.546875 0.28125 -6.773438 0.28125 -7.015625 Z M 1.140625 -7.015625 C 1.140625 -6.890625 1.15625 -6.765625 1.1875 -6.640625 C 1.21875 -6.523438 1.265625 -6.421875 1.328125 -6.328125 C 1.398438 -6.234375 1.484375 -6.15625 1.578125 -6.09375 C 1.679688 -6.039062 1.8125 -6.015625 1.96875 -6.015625 C 2.113281 -6.015625 2.238281 -6.039062 2.34375 -6.09375 C 2.445312 -6.15625 2.53125 -6.234375 2.59375 -6.328125 C 2.65625 -6.421875 2.703125 -6.523438 2.734375 -6.640625 C 2.765625 -6.765625 2.78125 -6.890625 2.78125 -7.015625 L 2.78125 -7.5 C 2.78125 -7.632812 2.765625 -7.765625 2.734375 -7.890625 C 2.703125 -8.015625 2.648438 -8.125 2.578125 -8.21875 C 2.515625 -8.3125 2.429688 -8.382812 2.328125 -8.4375 C 2.234375 -8.5 2.109375 -8.53125 1.953125 -8.53125 C 1.804688 -8.53125 1.679688 -8.5 1.578125 -8.4375 C 1.472656 -8.382812 1.390625 -8.3125 1.328125 -8.21875 C 1.265625 -8.125 1.21875 -8.015625 1.1875 -7.890625 C 1.15625 -7.765625 1.140625 -7.632812 1.140625 -7.5 Z M 4.0625 -2.125 C 4.0625 -2.363281 4.097656 -2.585938 4.171875 -2.796875 C 4.242188 -3.015625 4.347656 -3.203125 4.484375 -3.359375 C 4.628906 -3.523438 4.804688 -3.65625 5.015625 -3.75 C 5.222656 -3.84375 5.460938 -3.890625 5.734375 -3.890625 C 6.015625 -3.890625 6.257812 -3.84375 6.46875 -3.75 C 6.675781 -3.65625 6.847656 -3.523438 6.984375 -3.359375 C 7.128906 -3.203125 7.238281 -3.015625 7.3125 -2.796875 C 7.394531 -2.585938 7.4375 -2.363281 7.4375 -2.125 L 7.4375 -1.640625 C 7.4375 -1.398438 7.394531 -1.171875 7.3125 -0.953125 C 7.238281 -0.742188 7.128906 -0.554688 6.984375 -0.390625 C 6.847656 -0.234375 6.675781 -0.109375 6.46875 -0.015625 C 6.257812 0.078125 6.019531 0.125 5.75 0.125 C 5.476562 0.125 5.234375 0.078125 5.015625 -0.015625 C 4.804688 -0.109375 4.628906 -0.234375 4.484375 -0.390625 C 4.347656 -0.554688 4.242188 -0.742188 4.171875 -0.953125 C 4.097656 -1.171875 4.0625 -1.398438 4.0625 -1.640625 Z M 4.921875 -1.640625 C 4.921875 -1.503906 4.9375 -1.375 4.96875 -1.25 C 5 -1.132812 5.046875 -1.03125 5.109375 -0.9375 C 5.179688 -0.84375 5.269531 -0.765625 5.375 -0.703125 C 5.476562 -0.648438 5.601562 -0.625 5.75 -0.625 C 5.894531 -0.625 6.019531 -0.648438 6.125 -0.703125 C 6.226562 -0.765625 6.3125 -0.84375 6.375 -0.9375 C 6.4375 -1.03125 6.484375 -1.132812 6.515625 -1.25 C 6.546875 -1.375 6.5625 -1.503906 6.5625 -1.640625 L 6.5625 -2.125 C 6.5625 -2.25 6.546875 -2.375 6.515625 -2.5 C 6.484375 -2.625 6.4375 -2.734375 6.375 -2.828125 C 6.3125 -2.921875 6.222656 -2.992188 6.109375 -3.046875 C 6.003906 -3.109375 5.878906 -3.140625 5.734375 -3.140625 C 5.585938 -3.140625 5.460938 -3.109375 5.359375 -3.046875 C 5.253906 -2.992188 5.171875 -2.921875 5.109375 -2.828125 C 5.046875 -2.734375 5 -2.625 4.96875 -2.5 C 4.9375 -2.375 4.921875 -2.25 4.921875 -2.125 Z M 2.5 -1.1875 L 1.796875 -1.578125 L 5.375 -8.09375 L 6.0625 -7.703125 Z M 2.5 -1.1875 "/></g></g></g><g fill="#000000" fill-opacity="1"><g transform="translate(102.196989, 172.094793)"><g><path d="M 2.453125 -5.140625 L 3.28125 -5.140625 C 3.570312 -5.140625 3.828125 -5.175781 4.046875 -5.25 C 4.273438 -5.332031 4.46875 -5.441406 4.625 -5.578125 C 4.78125 -5.722656 4.894531 -5.890625 4.96875 -6.078125 C 5.050781 -6.273438 5.09375 -6.488281 5.09375 -6.71875 C 5.09375 -7.25 4.957031 -7.648438 4.6875 -7.921875 C 4.414062 -8.191406 4.015625 -8.328125 3.484375 -8.328125 C 3.242188 -8.328125 3.019531 -8.289062 2.8125 -8.21875 C 2.613281 -8.144531 2.441406 -8.035156 2.296875 -7.890625 C 2.148438 -7.753906 2.035156 -7.585938 1.953125 -7.390625 C 1.867188 -7.203125 1.828125 -6.988281 1.828125 -6.75 L 0.671875 -6.75 C 0.671875 -7.101562 0.738281 -7.429688 0.875 -7.734375 C 1.007812 -8.046875 1.195312 -8.316406 1.4375 -8.546875 C 1.6875 -8.773438 1.984375 -8.953125 2.328125 -9.078125 C 2.679688 -9.210938 3.066406 -9.28125 3.484375 -9.28125 C 3.898438 -9.28125 4.273438 -9.222656 4.609375 -9.109375 C 4.953125 -9.003906 5.242188 -8.84375 5.484375 -8.625 C 5.734375 -8.40625 5.921875 -8.132812 6.046875 -7.8125 C 6.179688 -7.488281 6.25 -7.113281 6.25 -6.6875 C 6.25 -6.507812 6.222656 -6.328125 6.171875 -6.140625 C 6.117188 -5.953125 6.035156 -5.769531 5.921875 -5.59375 C 5.804688 -5.414062 5.660156 -5.25 5.484375 -5.09375 C 5.304688 -4.9375 5.09375 -4.804688 4.84375 -4.703125 C 5.144531 -4.597656 5.394531 -4.46875 5.59375 -4.3125 C 5.789062 -4.164062 5.945312 -3.992188 6.0625 -3.796875 C 6.1875 -3.609375 6.269531 -3.40625 6.3125 -3.1875 C 6.363281 -2.96875 6.390625 -2.753906 6.390625 -2.546875 C 6.390625 -2.117188 6.316406 -1.738281 6.171875 -1.40625 C 6.023438 -1.082031 5.820312 -0.804688 5.5625 -0.578125 C 5.300781 -0.347656 4.992188 -0.171875 4.640625 -0.046875 C 4.285156 0.0664062 3.90625 0.125 3.5 0.125 C 3.09375 0.125 2.710938 0.0664062 2.359375 -0.046875 C 2.003906 -0.160156 1.695312 -0.328125 1.4375 -0.546875 C 1.175781 -0.765625 0.96875 -1.03125 0.8125 -1.34375 C 0.664062 -1.65625 0.59375 -2.015625 0.59375 -2.421875 L 1.75 -2.421875 C 1.75 -2.179688 1.789062 -1.960938 1.875 -1.765625 C 1.957031 -1.566406 2.070312 -1.394531 2.21875 -1.25 C 2.375 -1.113281 2.554688 -1.007812 2.765625 -0.9375 C 2.984375 -0.863281 3.226562 -0.828125 3.5 -0.828125 C 3.757812 -0.828125 3.992188 -0.859375 4.203125 -0.921875 C 4.421875 -0.992188 4.601562 -1.097656 4.75 -1.234375 C 4.90625 -1.378906 5.023438 -1.554688 5.109375 -1.765625 C 5.191406 -1.984375 5.234375 -2.238281 5.234375 -2.53125 C 5.234375 -2.8125 5.1875 -3.054688 5.09375 -3.265625 C 5 -3.472656 4.863281 -3.644531 4.6875 -3.78125 C 4.519531 -3.914062 4.316406 -4.015625 4.078125 -4.078125 C 3.835938 -4.148438 3.570312 -4.1875 3.28125 -4.1875 L 2.453125 -4.1875 Z M 2.453125 -5.140625 "/></g></g></g><g fill="#000000" fill-opacity="1"><g transform="translate(220.59228, 172.094793)"><g><path d="M 6.84375 -3.5 C 6.84375 -2.914062 6.773438 -2.398438 6.640625 -1.953125 C 6.503906 -1.503906 6.3125 -1.125 6.0625 -0.8125 C 5.8125 -0.507812 5.503906 -0.273438 5.140625 -0.109375 C 4.773438 0.046875 4.359375 0.125 3.890625 0.125 C 3.421875 0.125 3.003906 0.046875 2.640625 -0.109375 C 2.273438 -0.273438 1.960938 -0.507812 1.703125 -0.8125 C 1.441406 -1.125 1.242188 -1.503906 1.109375 -1.953125 C 0.972656 -2.398438 0.90625 -2.914062 0.90625 -3.5 L 0.90625 -5.640625 C 0.90625 -6.222656 0.972656 -6.738281 1.109375 -7.1875 C 1.242188 -7.644531 1.4375 -8.023438 1.6875 -8.328125 C 1.945312 -8.640625 2.257812 -8.875 2.625 -9.03125 C 2.988281 -9.195312 3.40625 -9.28125 3.875 -9.28125 C 4.34375 -9.28125 4.757812 -9.195312 5.125 -9.03125 C 5.488281 -8.875 5.796875 -8.640625 6.046875 -8.328125 C 6.304688 -8.023438 6.503906 -7.644531 6.640625 -7.1875 C 6.773438 -6.738281 6.84375 -6.222656 6.84375 -5.640625 Z M 2.078125 -3.734375 L 5.640625 -6.46875 C 5.578125 -7.070312 5.398438 -7.53125 5.109375 -7.84375 C 4.828125 -8.164062 4.414062 -8.328125 3.875 -8.328125 C 3.257812 -8.328125 2.804688 -8.117188 2.515625 -7.703125 C 2.222656 -7.296875 2.078125 -6.695312 2.078125 -5.90625 Z M 5.671875 -5.359375 L 2.109375 -2.640625 C 2.179688 -2.046875 2.363281 -1.59375 2.65625 -1.28125 C 2.945312 -0.96875 3.359375 -0.8125 3.890625 -0.8125 C 4.503906 -0.8125 4.953125 -1.019531 5.234375 -1.4375 C 5.523438 -1.863281 5.671875 -2.46875 5.671875 -3.25 Z M 5.671875 -5.359375 "/></g></g><g transform="translate(228.32, 172.094793)"><g><path d="M 3.125 -0.75 C 3.125 -0.875 3.140625 -0.988281 3.171875 -1.09375 C 3.210938 -1.207031 3.269531 -1.304688 3.34375 -1.390625 C 3.425781 -1.472656 3.519531 -1.535156 3.625 -1.578125 C 3.738281 -1.628906 3.875 -1.65625 4.03125 -1.65625 C 4.175781 -1.65625 4.304688 -1.628906 4.421875 -1.578125 C 4.546875 -1.535156 4.644531 -1.472656 4.71875 -1.390625 C 4.789062 -1.304688 4.847656 -1.207031 4.890625 -1.09375 C 4.929688 -0.988281 4.953125 -0.875 4.953125 -0.75 C 4.953125 -0.632812 4.929688 -0.519531 4.890625 -0.40625 C 4.847656 -0.300781 4.789062 -0.207031 4.71875 -0.125 C 4.644531 -0.0507812 4.546875 0.00390625 4.421875 0.046875 C 4.304688 0.0976562 4.175781 0.125 4.03125 0.125 C 3.875 0.125 3.738281 0.0976562 3.625 0.046875 C 3.519531 0.00390625 3.425781 -0.0507812 3.34375 -0.125 C 3.269531 -0.207031 3.210938 -0.300781 3.171875 -0.40625 C 3.140625 -0.519531 3.125 -0.632812 3.125 -0.75 Z M 3.125 -0.75 "/></g></g><g transform="translate(236.04772, 172.094793)"><g><path d="M 1.515625 -4.59375 L 1.96875 -9.15625 L 6.65625 -9.15625 L 6.65625 -8.015625 L 2.953125 -8.015625 L 2.6875 -5.578125 C 2.875 -5.679688 3.09375 -5.773438 3.34375 -5.859375 C 3.59375 -5.941406 3.882812 -5.984375 4.21875 -5.984375 C 4.632812 -5.984375 5.007812 -5.90625 5.34375 -5.75 C 5.6875 -5.601562 5.972656 -5.394531 6.203125 -5.125 C 6.441406 -4.863281 6.625 -4.546875 6.75 -4.171875 C 6.875 -3.796875 6.9375 -3.378906 6.9375 -2.921875 C 6.9375 -2.484375 6.875 -2.078125 6.75 -1.703125 C 6.632812 -1.328125 6.457031 -1.003906 6.21875 -0.734375 C 5.988281 -0.460938 5.691406 -0.25 5.328125 -0.09375 C 4.972656 0.0507812 4.550781 0.125 4.0625 0.125 C 3.6875 0.125 3.332031 0.0703125 3 -0.03125 C 2.675781 -0.132812 2.382812 -0.289062 2.125 -0.5 C 1.863281 -0.707031 1.648438 -0.96875 1.484375 -1.28125 C 1.316406 -1.601562 1.210938 -1.976562 1.171875 -2.40625 L 2.28125 -2.40625 C 2.351562 -1.882812 2.546875 -1.488281 2.859375 -1.21875 C 3.171875 -0.957031 3.570312 -0.828125 4.0625 -0.828125 C 4.332031 -0.828125 4.578125 -0.875 4.796875 -0.96875 C 5.015625 -1.070312 5.191406 -1.210938 5.328125 -1.390625 C 5.472656 -1.578125 5.582031 -1.796875 5.65625 -2.046875 C 5.726562 -2.304688 5.765625 -2.59375 5.765625 -2.90625 C 5.765625 -3.1875 5.722656 -3.453125 5.640625 -3.703125 C 5.566406 -3.953125 5.453125 -4.164062 5.296875 -4.34375 C 5.140625 -4.53125 4.945312 -4.675781 4.71875 -4.78125 C 4.488281 -4.882812 4.226562 -4.9375 3.9375 -4.9375 C 3.75 -4.9375 3.582031 -4.921875 3.4375 -4.890625 C 3.300781 -4.867188 3.175781 -4.832031 3.0625 -4.78125 C 2.945312 -4.726562 2.835938 -4.664062 2.734375 -4.59375 C 2.640625 -4.519531 2.539062 -4.4375 2.4375 -4.34375 Z M 1.515625 -4.59375 "/></g></g><g transform="translate(243.77544, 172.094793)"><g><path d="M 0.28125 -7.5 C 0.28125 -7.738281 0.316406 -7.96875 0.390625 -8.1875 C 0.460938 -8.40625 0.566406 -8.59375 0.703125 -8.75 C 0.847656 -8.914062 1.023438 -9.046875 1.234375 -9.140625 C 1.441406 -9.234375 1.679688 -9.28125 1.953125 -9.28125 C 2.234375 -9.28125 2.476562 -9.234375 2.6875 -9.140625 C 2.894531 -9.046875 3.066406 -8.914062 3.203125 -8.75 C 3.347656 -8.59375 3.457031 -8.40625 3.53125 -8.1875 C 3.601562 -7.96875 3.640625 -7.738281 3.640625 -7.5 L 3.640625 -7.015625 C 3.640625 -6.773438 3.601562 -6.546875 3.53125 -6.328125 C 3.457031 -6.117188 3.347656 -5.929688 3.203125 -5.765625 C 3.066406 -5.609375 2.894531 -5.484375 2.6875 -5.390625 C 2.476562 -5.296875 2.238281 -5.25 1.96875 -5.25 C 1.695312 -5.25 1.453125 -5.296875 1.234375 -5.390625 C 1.023438 -5.484375 0.847656 -5.609375 0.703125 -5.765625 C 0.566406 -5.929688 0.460938 -6.117188 0.390625 -6.328125 C 0.316406 -6.546875 0.28125 -6.773438 0.28125 -7.015625 Z M 1.140625 -7.015625 C 1.140625 -6.890625 1.15625 -6.765625 1.1875 -6.640625 C 1.21875 -6.523438 1.265625 -6.421875 1.328125 -6.328125 C 1.398438 -6.234375 1.484375 -6.15625 1.578125 -6.09375 C 1.679688 -6.039062 1.8125 -6.015625 1.96875 -6.015625 C 2.113281 -6.015625 2.238281 -6.039062 2.34375 -6.09375 C 2.445312 -6.15625 2.53125 -6.234375 2.59375 -6.328125 C 2.65625 -6.421875 2.703125 -6.523438 2.734375 -6.640625 C 2.765625 -6.765625 2.78125 -6.890625 2.78125 -7.015625 L 2.78125 -7.5 C 2.78125 -7.632812 2.765625 -7.765625 2.734375 -7.890625 C 2.703125 -8.015625 2.648438 -8.125 2.578125 -8.21875 C 2.515625 -8.3125 2.429688 -8.382812 2.328125 -8.4375 C 2.234375 -8.5 2.109375 -8.53125 1.953125 -8.53125 C 1.804688 -8.53125 1.679688 -8.5 1.578125 -8.4375 C 1.472656 -8.382812 1.390625 -8.3125 1.328125 -8.21875 C 1.265625 -8.125 1.21875 -8.015625 1.1875 -7.890625 C 1.15625 -7.765625 1.140625 -7.632812 1.140625 -7.5 Z M 4.0625 -2.125 C 4.0625 -2.363281 4.097656 -2.585938 4.171875 -2.796875 C 4.242188 -3.015625 4.347656 -3.203125 4.484375 -3.359375 C 4.628906 -3.523438 4.804688 -3.65625 5.015625 -3.75 C 5.222656 -3.84375 5.460938 -3.890625 5.734375 -3.890625 C 6.015625 -3.890625 6.257812 -3.84375 6.46875 -3.75 C 6.675781 -3.65625 6.847656 -3.523438 6.984375 -3.359375 C 7.128906 -3.203125 7.238281 -3.015625 7.3125 -2.796875 C 7.394531 -2.585938 7.4375 -2.363281 7.4375 -2.125 L 7.4375 -1.640625 C 7.4375 -1.398438 7.394531 -1.171875 7.3125 -0.953125 C 7.238281 -0.742188 7.128906 -0.554688 6.984375 -0.390625 C 6.847656 -0.234375 6.675781 -0.109375 6.46875 -0.015625 C 6.257812 0.078125 6.019531 0.125 5.75 0.125 C 5.476562 0.125 5.234375 0.078125 5.015625 -0.015625 C 4.804688 -0.109375 4.628906 -0.234375 4.484375 -0.390625 C 4.347656 -0.554688 4.242188 -0.742188 4.171875 -0.953125 C 4.097656 -1.171875 4.0625 -1.398438 4.0625 -1.640625 Z M 4.921875 -1.640625 C 4.921875 -1.503906 4.9375 -1.375 4.96875 -1.25 C 5 -1.132812 5.046875 -1.03125 5.109375 -0.9375 C 5.179688 -0.84375 5.269531 -0.765625 5.375 -0.703125 C 5.476562 -0.648438 5.601562 -0.625 5.75 -0.625 C 5.894531 -0.625 6.019531 -0.648438 6.125 -0.703125 C 6.226562 -0.765625 6.3125 -0.84375 6.375 -0.9375 C 6.4375 -1.03125 6.484375 -1.132812 6.515625 -1.25 C 6.546875 -1.375 6.5625 -1.503906 6.5625 -1.640625 L 6.5625 -2.125 C 6.5625 -2.25 6.546875 -2.375 6.515625 -2.5 C 6.484375 -2.625 6.4375 -2.734375 6.375 -2.828125 C 6.3125 -2.921875 6.222656 -2.992188 6.109375 -3.046875 C 6.003906 -3.109375 5.878906 -3.140625 5.734375 -3.140625 C 5.585938 -3.140625 5.460938 -3.109375 5.359375 -3.046875 C 5.253906 -2.992188 5.171875 -2.921875 5.109375 -2.828125 C 5.046875 -2.734375 5 -2.625 4.96875 -2.5 C 4.9375 -2.375 4.921875 -2.25 4.921875 -2.125 Z M 2.5 -1.1875 L 1.796875 -1.578125 L 5.375 -8.09375 L 6.0625 -7.703125 Z M 2.5 -1.1875 "/></g></g></g><g clip-path="url(#3b94eb3610)"><path fill="#0a0b18" d="M 319.953125 40.0625 L 319.953125 74.472656 L 447.519531 74.472656 L 447.519531 40.0625 Z M 449.933594 40.0625 L 449.933594 74.472656 L 577.5 74.472656 L 577.5 40.0625 Z M 449.933594 40.0625 " fill-opacity="1" fill-rule="nonzero"/></g><g clip-path="url(#bdba9653d1)"><path fill="#818bf2" d="M 319.953125 76.886719 L 319.953125 111.292969 L 447.519531 111.292969 L 447.519531 76.886719 Z M 319.953125 113.707031 L 319.953125 148.113281 L 447.519531 148.113281 L 447.519531 113.707031 Z M 319.953125 150.527344 L 319.953125 184.9375 L 447.519531 184.9375 L 447.519531 150.527344 Z M 319.953125 150.527344 " fill-opacity="1" fill-rule="nonzero"/></g><g clip-path="url(#2dc0eeb220)"><path fill="#dfe2fc" d="M 449.933594 76.886719 L 449.933594 111.292969 L 577.5 111.292969 L 577.5 76.886719 Z M 449.933594 113.707031 L 449.933594 148.113281 L 577.5 148.113281 L 577.5 113.707031 Z M 449.933594 150.527344 L 449.933594 184.9375 L 577.5 184.9375 L 577.5 150.527344 Z M 449.933594 150.527344 " fill-opacity="1" fill-rule="nonzero"/></g><g fill="#ffffff" fill-opacity="1"><g transform="translate(352.650992, 61.630579)"><g><path d="M 0.78125 0 L 0.78125 -9.15625 L 3.15625 -9.15625 C 3.757812 -9.15625 4.304688 -9.050781 4.796875 -8.84375 C 5.296875 -8.632812 5.71875 -8.34375 6.0625 -7.96875 C 6.414062 -7.601562 6.6875 -7.160156 6.875 -6.640625 C 7.070312 -6.128906 7.171875 -5.566406 7.171875 -4.953125 L 7.171875 -4.1875 C 7.171875 -3.570312 7.070312 -3.007812 6.875 -2.5 C 6.6875 -1.988281 6.421875 -1.546875 6.078125 -1.171875 C 5.734375 -0.796875 5.320312 -0.503906 4.84375 -0.296875 C 4.363281 -0.0976562 3.832031 0 3.25 0 Z M 2.5625 -7.71875 L 2.5625 -1.421875 L 3.25 -1.421875 C 3.570312 -1.421875 3.863281 -1.484375 4.125 -1.609375 C 4.394531 -1.734375 4.617188 -1.914062 4.796875 -2.15625 C 4.984375 -2.394531 5.125 -2.6875 5.21875 -3.03125 C 5.3125 -3.375 5.359375 -3.757812 5.359375 -4.1875 L 5.359375 -4.953125 C 5.359375 -5.367188 5.3125 -5.742188 5.21875 -6.078125 C 5.125 -6.421875 4.984375 -6.710938 4.796875 -6.953125 C 4.609375 -7.191406 4.378906 -7.378906 4.109375 -7.515625 C 3.835938 -7.648438 3.519531 -7.71875 3.15625 -7.71875 Z M 2.5625 -7.71875 "/></g></g><g transform="translate(360.378712, 61.630579)"><g><path d="M 7.203125 -3.90625 C 7.203125 -3.320312 7.125 -2.78125 6.96875 -2.28125 C 6.820312 -1.789062 6.597656 -1.363281 6.296875 -1 C 6.003906 -0.644531 5.648438 -0.367188 5.234375 -0.171875 C 4.816406 0.0234375 4.34375 0.125 3.8125 0.125 C 3.28125 0.125 2.804688 0.0234375 2.390625 -0.171875 C 1.984375 -0.367188 1.640625 -0.644531 1.359375 -1 C 1.078125 -1.363281 0.863281 -1.789062 0.71875 -2.28125 C 0.570312 -2.78125 0.5 -3.320312 0.5 -3.90625 L 0.5 -5.234375 C 0.5 -5.816406 0.570312 -6.351562 0.71875 -6.84375 C 0.863281 -7.34375 1.078125 -7.769531 1.359375 -8.125 C 1.640625 -8.488281 1.984375 -8.769531 2.390625 -8.96875 C 2.804688 -9.175781 3.273438 -9.28125 3.796875 -9.28125 C 4.335938 -9.28125 4.816406 -9.175781 5.234375 -8.96875 C 5.648438 -8.769531 6.003906 -8.488281 6.296875 -8.125 C 6.597656 -7.769531 6.820312 -7.34375 6.96875 -6.84375 C 7.125 -6.351562 7.203125 -5.816406 7.203125 -5.234375 Z M 5.421875 -5.25 C 5.421875 -5.625 5.390625 -5.96875 5.328125 -6.28125 C 5.265625 -6.59375 5.164062 -6.863281 5.03125 -7.09375 C 4.90625 -7.320312 4.738281 -7.5 4.53125 -7.625 C 4.332031 -7.75 4.085938 -7.8125 3.796875 -7.8125 C 3.515625 -7.8125 3.273438 -7.75 3.078125 -7.625 C 2.890625 -7.5 2.738281 -7.320312 2.625 -7.09375 C 2.507812 -6.863281 2.425781 -6.59375 2.375 -6.28125 C 2.320312 -5.96875 2.296875 -5.625 2.296875 -5.25 L 2.296875 -3.90625 C 2.296875 -3.53125 2.320312 -3.1875 2.375 -2.875 C 2.425781 -2.5625 2.507812 -2.289062 2.625 -2.0625 C 2.738281 -1.832031 2.890625 -1.648438 3.078125 -1.515625 C 3.273438 -1.390625 3.519531 -1.328125 3.8125 -1.328125 C 4.09375 -1.328125 4.332031 -1.390625 4.53125 -1.515625 C 4.738281 -1.648438 4.90625 -1.832031 5.03125 -2.0625 C 5.164062 -2.289062 5.265625 -2.5625 5.328125 -2.875 C 5.390625 -3.1875 5.421875 -3.53125 5.421875 -3.90625 Z M 5.421875 -5.25 "/></g></g><g transform="translate(368.106432, 61.630579)"><g><path d="M 7.171875 -2.859375 C 7.148438 -2.398438 7.050781 -1.984375 6.875 -1.609375 C 6.707031 -1.242188 6.476562 -0.929688 6.1875 -0.671875 C 5.90625 -0.421875 5.566406 -0.222656 5.171875 -0.078125 C 4.785156 0.0546875 4.351562 0.125 3.875 0.125 C 3.332031 0.125 2.847656 0.0234375 2.421875 -0.171875 C 2.003906 -0.367188 1.65625 -0.644531 1.375 -1 C 1.09375 -1.363281 0.875 -1.796875 0.71875 -2.296875 C 0.570312 -2.796875 0.5 -3.347656 0.5 -3.953125 L 0.5 -5.1875 C 0.5 -5.789062 0.578125 -6.34375 0.734375 -6.84375 C 0.890625 -7.351562 1.113281 -7.785156 1.40625 -8.140625 C 1.707031 -8.503906 2.066406 -8.785156 2.484375 -8.984375 C 2.898438 -9.179688 3.367188 -9.28125 3.890625 -9.28125 C 4.390625 -9.28125 4.832031 -9.207031 5.21875 -9.0625 C 5.613281 -8.925781 5.945312 -8.722656 6.21875 -8.453125 C 6.5 -8.191406 6.71875 -7.867188 6.875 -7.484375 C 7.039062 -7.109375 7.144531 -6.679688 7.1875 -6.203125 L 5.421875 -6.203125 C 5.410156 -6.472656 5.367188 -6.710938 5.296875 -6.921875 C 5.234375 -7.128906 5.140625 -7.300781 5.015625 -7.4375 C 4.890625 -7.570312 4.734375 -7.671875 4.546875 -7.734375 C 4.367188 -7.804688 4.148438 -7.84375 3.890625 -7.84375 C 3.609375 -7.84375 3.367188 -7.785156 3.171875 -7.671875 C 2.972656 -7.554688 2.804688 -7.382812 2.671875 -7.15625 C 2.546875 -6.925781 2.445312 -6.644531 2.375 -6.3125 C 2.3125 -5.988281 2.28125 -5.617188 2.28125 -5.203125 L 2.28125 -3.953125 C 2.28125 -3.054688 2.40625 -2.390625 2.65625 -1.953125 C 2.914062 -1.523438 3.320312 -1.3125 3.875 -1.3125 C 4.332031 -1.3125 4.695312 -1.429688 4.96875 -1.671875 C 5.238281 -1.921875 5.382812 -2.316406 5.40625 -2.859375 Z M 7.171875 -2.859375 "/></g></g><g transform="translate(375.834152, 61.630579)"><g><path d="M 6.921875 -9.15625 L 6.921875 -3.09375 C 6.921875 -2.570312 6.847656 -2.113281 6.703125 -1.71875 C 6.566406 -1.320312 6.363281 -0.984375 6.09375 -0.703125 C 5.832031 -0.429688 5.507812 -0.222656 5.125 -0.078125 C 4.75 0.0546875 4.316406 0.125 3.828125 0.125 C 3.359375 0.125 2.9375 0.0546875 2.5625 -0.078125 C 2.195312 -0.222656 1.878906 -0.429688 1.609375 -0.703125 C 1.347656 -0.984375 1.144531 -1.320312 1 -1.71875 C 0.863281 -2.113281 0.796875 -2.570312 0.796875 -3.09375 L 0.796875 -9.15625 L 2.5625 -9.15625 L 2.578125 -3.09375 C 2.578125 -2.5 2.679688 -2.050781 2.890625 -1.75 C 3.109375 -1.445312 3.421875 -1.296875 3.828125 -1.296875 C 4.253906 -1.296875 4.582031 -1.445312 4.8125 -1.75 C 5.039062 -2.050781 5.15625 -2.5 5.15625 -3.09375 L 5.171875 -9.15625 Z M 6.921875 -9.15625 "/></g></g><g transform="translate(383.561872, 61.630579)"><g><path d="M 3 -9.15625 L 3.859375 -5.71875 L 4.84375 -9.15625 L 7.046875 -9.15625 L 7.046875 0 L 5.421875 0 L 5.421875 -2.703125 L 5.5 -6.984375 L 4.296875 -3.015625 L 3.421875 -3.015625 L 2.34375 -6.828125 L 2.421875 -2.703125 L 2.421875 0 L 0.796875 0 L 0.796875 -9.15625 Z M 3 -9.15625 "/></g></g><g transform="translate(391.289592, 61.630579)"><g><path d="M 6.453125 -4.015625 L 2.703125 -4.015625 L 2.703125 -1.421875 L 7.09375 -1.421875 L 7.09375 0 L 0.921875 0 L 0.921875 -9.15625 L 7.078125 -9.15625 L 7.078125 -7.71875 L 2.703125 -7.71875 L 2.703125 -5.40625 L 6.453125 -5.40625 Z M 6.453125 -4.015625 "/></g></g><g transform="translate(399.017312, 61.630579)"><g><path d="M 6.859375 0 L 5.09375 0 L 2.546875 -5.90625 L 2.546875 0 L 0.765625 0 L 0.765625 -9.15625 L 2.546875 -9.15625 L 5.078125 -3.28125 L 5.078125 -9.15625 L 6.859375 -9.15625 Z M 6.859375 0 "/></g></g><g transform="translate(406.745032, 61.630579)"><g><path d="M 7.546875 -7.71875 L 4.734375 -7.71875 L 4.734375 0 L 2.953125 0 L 2.953125 -7.71875 L 0.171875 -7.71875 L 0.171875 -9.15625 L 7.546875 -9.15625 Z M 7.546875 -7.71875 "/></g></g></g><g fill="#ffffff" fill-opacity="1"><g transform="translate(482.632627, 61.630579)"><g><path d="M 7.546875 -7.71875 L 4.734375 -7.71875 L 4.734375 0 L 2.953125 0 L 2.953125 -7.71875 L 0.171875 -7.71875 L 0.171875 -9.15625 L 7.546875 -9.15625 Z M 7.546875 -7.71875 "/></g></g><g transform="translate(490.360347, 61.630579)"><g><path d="M 7.203125 -3.90625 C 7.203125 -3.320312 7.125 -2.78125 6.96875 -2.28125 C 6.820312 -1.789062 6.597656 -1.363281 6.296875 -1 C 6.003906 -0.644531 5.648438 -0.367188 5.234375 -0.171875 C 4.816406 0.0234375 4.34375 0.125 3.8125 0.125 C 3.28125 0.125 2.804688 0.0234375 2.390625 -0.171875 C 1.984375 -0.367188 1.640625 -0.644531 1.359375 -1 C 1.078125 -1.363281 0.863281 -1.789062 0.71875 -2.28125 C 0.570312 -2.78125 0.5 -3.320312 0.5 -3.90625 L 0.5 -5.234375 C 0.5 -5.816406 0.570312 -6.351562 0.71875 -6.84375 C 0.863281 -7.34375 1.078125 -7.769531 1.359375 -8.125 C 1.640625 -8.488281 1.984375 -8.769531 2.390625 -8.96875 C 2.804688 -9.175781 3.273438 -9.28125 3.796875 -9.28125 C 4.335938 -9.28125 4.816406 -9.175781 5.234375 -8.96875 C 5.648438 -8.769531 6.003906 -8.488281 6.296875 -8.125 C 6.597656 -7.769531 6.820312 -7.34375 6.96875 -6.84375 C 7.125 -6.351562 7.203125 -5.816406 7.203125 -5.234375 Z M 5.421875 -5.25 C 5.421875 -5.625 5.390625 -5.96875 5.328125 -6.28125 C 5.265625 -6.59375 5.164062 -6.863281 5.03125 -7.09375 C 4.90625 -7.320312 4.738281 -7.5 4.53125 -7.625 C 4.332031 -7.75 4.085938 -7.8125 3.796875 -7.8125 C 3.515625 -7.8125 3.273438 -7.75 3.078125 -7.625 C 2.890625 -7.5 2.738281 -7.320312 2.625 -7.09375 C 2.507812 -6.863281 2.425781 -6.59375 2.375 -6.28125 C 2.320312 -5.96875 2.296875 -5.625 2.296875 -5.25 L 2.296875 -3.90625 C 2.296875 -3.53125 2.320312 -3.1875 2.375 -2.875 C 2.425781 -2.5625 2.507812 -2.289062 2.625 -2.0625 C 2.738281 -1.832031 2.890625 -1.648438 3.078125 -1.515625 C 3.273438 -1.390625 3.519531 -1.328125 3.8125 -1.328125 C 4.09375 -1.328125 4.332031 -1.390625 4.53125 -1.515625 C 4.738281 -1.648438 4.90625 -1.832031 5.03125 -2.0625 C 5.164062 -2.289062 5.265625 -2.5625 5.328125 -2.875 C 5.390625 -3.1875 5.421875 -3.53125 5.421875 -3.90625 Z M 5.421875 -5.25 "/></g></g><g transform="translate(498.088067, 61.630579)"><g><path d="M 2.703125 -3.359375 L 2.703125 0 L 0.9375 0 L 0.9375 -9.15625 L 4.0625 -9.15625 C 4.5625 -9.15625 5.007812 -9.082031 5.40625 -8.9375 C 5.8125 -8.789062 6.15625 -8.585938 6.4375 -8.328125 C 6.726562 -8.078125 6.945312 -7.769531 7.09375 -7.40625 C 7.25 -7.039062 7.328125 -6.640625 7.328125 -6.203125 C 7.328125 -5.796875 7.25 -5.414062 7.09375 -5.0625 C 6.945312 -4.71875 6.726562 -4.414062 6.4375 -4.15625 C 6.15625 -3.90625 5.8125 -3.707031 5.40625 -3.5625 C 5.007812 -3.425781 4.5625 -3.359375 4.0625 -3.359375 Z M 2.703125 -4.796875 L 4.0625 -4.796875 C 4.3125 -4.796875 4.53125 -4.832031 4.71875 -4.90625 C 4.90625 -4.976562 5.0625 -5.078125 5.1875 -5.203125 C 5.3125 -5.335938 5.398438 -5.488281 5.453125 -5.65625 C 5.515625 -5.832031 5.546875 -6.007812 5.546875 -6.1875 C 5.546875 -6.40625 5.515625 -6.601562 5.453125 -6.78125 C 5.398438 -6.96875 5.3125 -7.128906 5.1875 -7.265625 C 5.0625 -7.410156 4.90625 -7.519531 4.71875 -7.59375 C 4.53125 -7.675781 4.3125 -7.71875 4.0625 -7.71875 L 2.703125 -7.71875 Z M 2.703125 -4.796875 "/></g></g><g transform="translate(505.815787, 61.630579)"><g><path d="M 1.21875 -9.15625 L 6.5 -9.15625 L 6.5 -7.71875 L 4.71875 -7.71875 L 4.71875 -1.421875 L 6.5 -1.421875 L 6.5 0 L 1.21875 0 L 1.21875 -1.421875 L 2.953125 -1.421875 L 2.953125 -7.71875 L 1.21875 -7.71875 Z M 1.21875 -9.15625 "/></g></g><g transform="translate(513.543507, 61.630579)"><g><path d="M 7.171875 -2.859375 C 7.148438 -2.398438 7.050781 -1.984375 6.875 -1.609375 C 6.707031 -1.242188 6.476562 -0.929688 6.1875 -0.671875 C 5.90625 -0.421875 5.566406 -0.222656 5.171875 -0.078125 C 4.785156 0.0546875 4.351562 0.125 3.875 0.125 C 3.332031 0.125 2.847656 0.0234375 2.421875 -0.171875 C 2.003906 -0.367188 1.65625 -0.644531 1.375 -1 C 1.09375 -1.363281 0.875 -1.796875 0.71875 -2.296875 C 0.570312 -2.796875 0.5 -3.347656 0.5 -3.953125 L 0.5 -5.1875 C 0.5 -5.789062 0.578125 -6.34375 0.734375 -6.84375 C 0.890625 -7.351562 1.113281 -7.785156 1.40625 -8.140625 C 1.707031 -8.503906 2.066406 -8.785156 2.484375 -8.984375 C 2.898438 -9.179688 3.367188 -9.28125 3.890625 -9.28125 C 4.390625 -9.28125 4.832031 -9.207031 5.21875 -9.0625 C 5.613281 -8.925781 5.945312 -8.722656 6.21875 -8.453125 C 6.5 -8.191406 6.71875 -7.867188 6.875 -7.484375 C 7.039062 -7.109375 7.144531 -6.679688 7.1875 -6.203125 L 5.421875 -6.203125 C 5.410156 -6.472656 5.367188 -6.710938 5.296875 -6.921875 C 5.234375 -7.128906 5.140625 -7.300781 5.015625 -7.4375 C 4.890625 -7.570312 4.734375 -7.671875 4.546875 -7.734375 C 4.367188 -7.804688 4.148438 -7.84375 3.890625 -7.84375 C 3.609375 -7.84375 3.367188 -7.785156 3.171875 -7.671875 C 2.972656 -7.554688 2.804688 -7.382812 2.671875 -7.15625 C 2.546875 -6.925781 2.445312 -6.644531 2.375 -6.3125 C 2.3125 -5.988281 2.28125 -5.617188 2.28125 -5.203125 L 2.28125 -3.953125 C 2.28125 -3.054688 2.40625 -2.390625 2.65625 -1.953125 C 2.914062 -1.523438 3.320312 -1.3125 3.875 -1.3125 C 4.332031 -1.3125 4.695312 -1.429688 4.96875 -1.671875 C 5.238281 -1.921875 5.382812 -2.316406 5.40625 -2.859375 Z M 7.171875 -2.859375 "/></g></g><g transform="translate(521.271227, 61.630579)"><g/></g><g transform="translate(528.998947, 61.630579)"><g><path d="M 5.171875 0 L 3.40625 0 L 3.40625 -7.015625 L 1.09375 -6.1875 L 1.09375 -7.71875 L 5.078125 -9.15625 L 5.171875 -9.15625 Z M 5.171875 0 "/></g></g><g transform="translate(536.726667, 61.630579)"><g><path d="M 6.84375 -3.484375 C 6.84375 -2.890625 6.773438 -2.367188 6.640625 -1.921875 C 6.503906 -1.472656 6.304688 -1.09375 6.046875 -0.78125 C 5.796875 -0.476562 5.484375 -0.25 5.109375 -0.09375 C 4.742188 0.0507812 4.332031 0.125 3.875 0.125 C 3.414062 0.125 3 0.0507812 2.625 -0.09375 C 2.257812 -0.25 1.945312 -0.476562 1.6875 -0.78125 C 1.4375 -1.09375 1.238281 -1.472656 1.09375 -1.921875 C 0.957031 -2.367188 0.890625 -2.890625 0.890625 -3.484375 L 0.890625 -5.671875 C 0.890625 -6.265625 0.957031 -6.785156 1.09375 -7.234375 C 1.226562 -7.679688 1.425781 -8.054688 1.6875 -8.359375 C 1.945312 -8.660156 2.257812 -8.890625 2.625 -9.046875 C 2.988281 -9.203125 3.398438 -9.28125 3.859375 -9.28125 C 4.316406 -9.28125 4.726562 -9.203125 5.09375 -9.046875 C 5.46875 -8.890625 5.785156 -8.660156 6.046875 -8.359375 C 6.304688 -8.054688 6.503906 -7.679688 6.640625 -7.234375 C 6.773438 -6.785156 6.84375 -6.265625 6.84375 -5.671875 Z M 2.640625 -4.234375 L 5.078125 -6.046875 C 5.066406 -6.671875 4.960938 -7.128906 4.765625 -7.421875 C 4.566406 -7.722656 4.265625 -7.875 3.859375 -7.875 C 3.453125 -7.875 3.144531 -7.710938 2.9375 -7.390625 C 2.738281 -7.078125 2.640625 -6.597656 2.640625 -5.953125 Z M 5.078125 -4.859375 L 2.640625 -3.0625 C 2.660156 -2.457031 2.769531 -2.007812 2.96875 -1.71875 C 3.175781 -1.425781 3.476562 -1.28125 3.875 -1.28125 C 4.28125 -1.28125 4.582031 -1.4375 4.78125 -1.75 C 4.976562 -2.070312 5.078125 -2.5625 5.078125 -3.21875 Z M 5.078125 -4.859375 "/></g></g></g><g fill="#000000" fill-opacity="1"><g transform="translate(501.948783, 98.451944)"><g><path d="M 2.34375 -1.03125 C 2.757812 -1.03125 3.125 -1.066406 3.4375 -1.140625 C 3.75 -1.210938 4.019531 -1.316406 4.25 -1.453125 C 4.488281 -1.585938 4.6875 -1.742188 4.84375 -1.921875 C 5 -2.109375 5.125 -2.3125 5.21875 -2.53125 C 5.320312 -2.75 5.394531 -2.976562 5.4375 -3.21875 C 5.476562 -3.46875 5.507812 -3.722656 5.53125 -3.984375 C 5.425781 -3.859375 5.304688 -3.738281 5.171875 -3.625 C 5.046875 -3.507812 4.898438 -3.410156 4.734375 -3.328125 C 4.578125 -3.242188 4.394531 -3.175781 4.1875 -3.125 C 3.988281 -3.082031 3.773438 -3.0625 3.546875 -3.0625 C 3.085938 -3.0625 2.691406 -3.148438 2.359375 -3.328125 C 2.035156 -3.503906 1.765625 -3.738281 1.546875 -4.03125 C 1.335938 -4.320312 1.179688 -4.648438 1.078125 -5.015625 C 0.984375 -5.378906 0.9375 -5.742188 0.9375 -6.109375 C 0.9375 -6.546875 0.992188 -6.953125 1.109375 -7.328125 C 1.234375 -7.710938 1.410156 -8.046875 1.640625 -8.328125 C 1.878906 -8.617188 2.175781 -8.847656 2.53125 -9.015625 C 2.882812 -9.191406 3.296875 -9.28125 3.765625 -9.28125 C 4.117188 -9.28125 4.4375 -9.226562 4.71875 -9.125 C 5.007812 -9.03125 5.257812 -8.894531 5.46875 -8.71875 C 5.6875 -8.550781 5.875 -8.347656 6.03125 -8.109375 C 6.1875 -7.867188 6.3125 -7.609375 6.40625 -7.328125 C 6.507812 -7.054688 6.582031 -6.769531 6.625 -6.46875 C 6.664062 -6.175781 6.6875 -5.878906 6.6875 -5.578125 L 6.6875 -5.15625 C 6.6875 -4.769531 6.664062 -4.367188 6.625 -3.953125 C 6.59375 -3.546875 6.519531 -3.148438 6.40625 -2.765625 C 6.300781 -2.390625 6.144531 -2.03125 5.9375 -1.6875 C 5.738281 -1.351562 5.476562 -1.0625 5.15625 -0.8125 C 4.832031 -0.5625 4.441406 -0.363281 3.984375 -0.21875 C 3.523438 -0.0703125 2.976562 0 2.34375 0 L 2.21875 0 L 2.21875 -1.03125 Z M 3.734375 -4.03125 C 3.929688 -4.03125 4.125 -4.0625 4.3125 -4.125 C 4.5 -4.1875 4.671875 -4.273438 4.828125 -4.390625 C 4.984375 -4.515625 5.125 -4.65625 5.25 -4.8125 C 5.375 -4.976562 5.46875 -5.160156 5.53125 -5.359375 L 5.53125 -5.734375 C 5.53125 -6.140625 5.484375 -6.5 5.390625 -6.8125 C 5.296875 -7.132812 5.164062 -7.40625 5 -7.625 C 4.84375 -7.84375 4.660156 -8.007812 4.453125 -8.125 C 4.242188 -8.25 4.019531 -8.3125 3.78125 -8.3125 C 3.507812 -8.3125 3.265625 -8.253906 3.046875 -8.140625 C 2.835938 -8.035156 2.660156 -7.882812 2.515625 -7.6875 C 2.378906 -7.5 2.269531 -7.273438 2.1875 -7.015625 C 2.113281 -6.753906 2.078125 -6.472656 2.078125 -6.171875 C 2.078125 -5.898438 2.109375 -5.632812 2.171875 -5.375 C 2.242188 -5.125 2.347656 -4.894531 2.484375 -4.6875 C 2.617188 -4.488281 2.789062 -4.328125 3 -4.203125 C 3.207031 -4.085938 3.453125 -4.03125 3.734375 -4.03125 Z M 3.734375 -4.03125 "/></g></g><g transform="translate(509.676503, 98.451944)"><g><path d="M 1.515625 -4.59375 L 1.96875 -9.15625 L 6.65625 -9.15625 L 6.65625 -8.015625 L 2.953125 -8.015625 L 2.6875 -5.578125 C 2.875 -5.679688 3.09375 -5.773438 3.34375 -5.859375 C 3.59375 -5.941406 3.882812 -5.984375 4.21875 -5.984375 C 4.632812 -5.984375 5.007812 -5.90625 5.34375 -5.75 C 5.6875 -5.601562 5.972656 -5.394531 6.203125 -5.125 C 6.441406 -4.863281 6.625 -4.546875 6.75 -4.171875 C 6.875 -3.796875 6.9375 -3.378906 6.9375 -2.921875 C 6.9375 -2.484375 6.875 -2.078125 6.75 -1.703125 C 6.632812 -1.328125 6.457031 -1.003906 6.21875 -0.734375 C 5.988281 -0.460938 5.691406 -0.25 5.328125 -0.09375 C 4.972656 0.0507812 4.550781 0.125 4.0625 0.125 C 3.6875 0.125 3.332031 0.0703125 3 -0.03125 C 2.675781 -0.132812 2.382812 -0.289062 2.125 -0.5 C 1.863281 -0.707031 1.648438 -0.96875 1.484375 -1.28125 C 1.316406 -1.601562 1.210938 -1.976562 1.171875 -2.40625 L 2.28125 -2.40625 C 2.351562 -1.882812 2.546875 -1.488281 2.859375 -1.21875 C 3.171875 -0.957031 3.570312 -0.828125 4.0625 -0.828125 C 4.332031 -0.828125 4.578125 -0.875 4.796875 -0.96875 C 5.015625 -1.070312 5.191406 -1.210938 5.328125 -1.390625 C 5.472656 -1.578125 5.582031 -1.796875 5.65625 -2.046875 C 5.726562 -2.304688 5.765625 -2.59375 5.765625 -2.90625 C 5.765625 -3.1875 5.722656 -3.453125 5.640625 -3.703125 C 5.566406 -3.953125 5.453125 -4.164062 5.296875 -4.34375 C 5.140625 -4.53125 4.945312 -4.675781 4.71875 -4.78125 C 4.488281 -4.882812 4.226562 -4.9375 3.9375 -4.9375 C 3.75 -4.9375 3.582031 -4.921875 3.4375 -4.890625 C 3.300781 -4.867188 3.175781 -4.832031 3.0625 -4.78125 C 2.945312 -4.726562 2.835938 -4.664062 2.734375 -4.59375 C 2.640625 -4.519531 2.539062 -4.4375 2.4375 -4.34375 Z M 1.515625 -4.59375 "/></g></g><g transform="translate(517.404223, 98.451944)"><g><path d="M 0.28125 -7.5 C 0.28125 -7.738281 0.316406 -7.96875 0.390625 -8.1875 C 0.460938 -8.40625 0.566406 -8.59375 0.703125 -8.75 C 0.847656 -8.914062 1.023438 -9.046875 1.234375 -9.140625 C 1.441406 -9.234375 1.679688 -9.28125 1.953125 -9.28125 C 2.234375 -9.28125 2.476562 -9.234375 2.6875 -9.140625 C 2.894531 -9.046875 3.066406 -8.914062 3.203125 -8.75 C 3.347656 -8.59375 3.457031 -8.40625 3.53125 -8.1875 C 3.601562 -7.96875 3.640625 -7.738281 3.640625 -7.5 L 3.640625 -7.015625 C 3.640625 -6.773438 3.601562 -6.546875 3.53125 -6.328125 C 3.457031 -6.117188 3.347656 -5.929688 3.203125 -5.765625 C 3.066406 -5.609375 2.894531 -5.484375 2.6875 -5.390625 C 2.476562 -5.296875 2.238281 -5.25 1.96875 -5.25 C 1.695312 -5.25 1.453125 -5.296875 1.234375 -5.390625 C 1.023438 -5.484375 0.847656 -5.609375 0.703125 -5.765625 C 0.566406 -5.929688 0.460938 -6.117188 0.390625 -6.328125 C 0.316406 -6.546875 0.28125 -6.773438 0.28125 -7.015625 Z M 1.140625 -7.015625 C 1.140625 -6.890625 1.15625 -6.765625 1.1875 -6.640625 C 1.21875 -6.523438 1.265625 -6.421875 1.328125 -6.328125 C 1.398438 -6.234375 1.484375 -6.15625 1.578125 -6.09375 C 1.679688 -6.039062 1.8125 -6.015625 1.96875 -6.015625 C 2.113281 -6.015625 2.238281 -6.039062 2.34375 -6.09375 C 2.445312 -6.15625 2.53125 -6.234375 2.59375 -6.328125 C 2.65625 -6.421875 2.703125 -6.523438 2.734375 -6.640625 C 2.765625 -6.765625 2.78125 -6.890625 2.78125 -7.015625 L 2.78125 -7.5 C 2.78125 -7.632812 2.765625 -7.765625 2.734375 -7.890625 C 2.703125 -8.015625 2.648438 -8.125 2.578125 -8.21875 C 2.515625 -8.3125 2.429688 -8.382812 2.328125 -8.4375 C 2.234375 -8.5 2.109375 -8.53125 1.953125 -8.53125 C 1.804688 -8.53125 1.679688 -8.5 1.578125 -8.4375 C 1.472656 -8.382812 1.390625 -8.3125 1.328125 -8.21875 C 1.265625 -8.125 1.21875 -8.015625 1.1875 -7.890625 C 1.15625 -7.765625 1.140625 -7.632812 1.140625 -7.5 Z M 4.0625 -2.125 C 4.0625 -2.363281 4.097656 -2.585938 4.171875 -2.796875 C 4.242188 -3.015625 4.347656 -3.203125 4.484375 -3.359375 C 4.628906 -3.523438 4.804688 -3.65625 5.015625 -3.75 C 5.222656 -3.84375 5.460938 -3.890625 5.734375 -3.890625 C 6.015625 -3.890625 6.257812 -3.84375 6.46875 -3.75 C 6.675781 -3.65625 6.847656 -3.523438 6.984375 -3.359375 C 7.128906 -3.203125 7.238281 -3.015625 7.3125 -2.796875 C 7.394531 -2.585938 7.4375 -2.363281 7.4375 -2.125 L 7.4375 -1.640625 C 7.4375 -1.398438 7.394531 -1.171875 7.3125 -0.953125 C 7.238281 -0.742188 7.128906 -0.554688 6.984375 -0.390625 C 6.847656 -0.234375 6.675781 -0.109375 6.46875 -0.015625 C 6.257812 0.078125 6.019531 0.125 5.75 0.125 C 5.476562 0.125 5.234375 0.078125 5.015625 -0.015625 C 4.804688 -0.109375 4.628906 -0.234375 4.484375 -0.390625 C 4.347656 -0.554688 4.242188 -0.742188 4.171875 -0.953125 C 4.097656 -1.171875 4.0625 -1.398438 4.0625 -1.640625 Z M 4.921875 -1.640625 C 4.921875 -1.503906 4.9375 -1.375 4.96875 -1.25 C 5 -1.132812 5.046875 -1.03125 5.109375 -0.9375 C 5.179688 -0.84375 5.269531 -0.765625 5.375 -0.703125 C 5.476562 -0.648438 5.601562 -0.625 5.75 -0.625 C 5.894531 -0.625 6.019531 -0.648438 6.125 -0.703125 C 6.226562 -0.765625 6.3125 -0.84375 6.375 -0.9375 C 6.4375 -1.03125 6.484375 -1.132812 6.515625 -1.25 C 6.546875 -1.375 6.5625 -1.503906 6.5625 -1.640625 L 6.5625 -2.125 C 6.5625 -2.25 6.546875 -2.375 6.515625 -2.5 C 6.484375 -2.625 6.4375 -2.734375 6.375 -2.828125 C 6.3125 -2.921875 6.222656 -2.992188 6.109375 -3.046875 C 6.003906 -3.109375 5.878906 -3.140625 5.734375 -3.140625 C 5.585938 -3.140625 5.460938 -3.109375 5.359375 -3.046875 C 5.253906 -2.992188 5.171875 -2.921875 5.109375 -2.828125 C 5.046875 -2.734375 5 -2.625 4.96875 -2.5 C 4.9375 -2.375 4.921875 -2.25 4.921875 -2.125 Z M 2.5 -1.1875 L 1.796875 -1.578125 L 5.375 -8.09375 L 6.0625 -7.703125 Z M 2.5 -1.1875 "/></g></g></g><g fill="#000000" fill-opacity="1"><g transform="translate(501.948783, 135.273368)"><g><path d="M 2.34375 -1.03125 C 2.757812 -1.03125 3.125 -1.066406 3.4375 -1.140625 C 3.75 -1.210938 4.019531 -1.316406 4.25 -1.453125 C 4.488281 -1.585938 4.6875 -1.742188 4.84375 -1.921875 C 5 -2.109375 5.125 -2.3125 5.21875 -2.53125 C 5.320312 -2.75 5.394531 -2.976562 5.4375 -3.21875 C 5.476562 -3.46875 5.507812 -3.722656 5.53125 -3.984375 C 5.425781 -3.859375 5.304688 -3.738281 5.171875 -3.625 C 5.046875 -3.507812 4.898438 -3.410156 4.734375 -3.328125 C 4.578125 -3.242188 4.394531 -3.175781 4.1875 -3.125 C 3.988281 -3.082031 3.773438 -3.0625 3.546875 -3.0625 C 3.085938 -3.0625 2.691406 -3.148438 2.359375 -3.328125 C 2.035156 -3.503906 1.765625 -3.738281 1.546875 -4.03125 C 1.335938 -4.320312 1.179688 -4.648438 1.078125 -5.015625 C 0.984375 -5.378906 0.9375 -5.742188 0.9375 -6.109375 C 0.9375 -6.546875 0.992188 -6.953125 1.109375 -7.328125 C 1.234375 -7.710938 1.410156 -8.046875 1.640625 -8.328125 C 1.878906 -8.617188 2.175781 -8.847656 2.53125 -9.015625 C 2.882812 -9.191406 3.296875 -9.28125 3.765625 -9.28125 C 4.117188 -9.28125 4.4375 -9.226562 4.71875 -9.125 C 5.007812 -9.03125 5.257812 -8.894531 5.46875 -8.71875 C 5.6875 -8.550781 5.875 -8.347656 6.03125 -8.109375 C 6.1875 -7.867188 6.3125 -7.609375 6.40625 -7.328125 C 6.507812 -7.054688 6.582031 -6.769531 6.625 -6.46875 C 6.664062 -6.175781 6.6875 -5.878906 6.6875 -5.578125 L 6.6875 -5.15625 C 6.6875 -4.769531 6.664062 -4.367188 6.625 -3.953125 C 6.59375 -3.546875 6.519531 -3.148438 6.40625 -2.765625 C 6.300781 -2.390625 6.144531 -2.03125 5.9375 -1.6875 C 5.738281 -1.351562 5.476562 -1.0625 5.15625 -0.8125 C 4.832031 -0.5625 4.441406 -0.363281 3.984375 -0.21875 C 3.523438 -0.0703125 2.976562 0 2.34375 0 L 2.21875 0 L 2.21875 -1.03125 Z M 3.734375 -4.03125 C 3.929688 -4.03125 4.125 -4.0625 4.3125 -4.125 C 4.5 -4.1875 4.671875 -4.273438 4.828125 -4.390625 C 4.984375 -4.515625 5.125 -4.65625 5.25 -4.8125 C 5.375 -4.976562 5.46875 -5.160156 5.53125 -5.359375 L 5.53125 -5.734375 C 5.53125 -6.140625 5.484375 -6.5 5.390625 -6.8125 C 5.296875 -7.132812 5.164062 -7.40625 5 -7.625 C 4.84375 -7.84375 4.660156 -8.007812 4.453125 -8.125 C 4.242188 -8.25 4.019531 -8.3125 3.78125 -8.3125 C 3.507812 -8.3125 3.265625 -8.253906 3.046875 -8.140625 C 2.835938 -8.035156 2.660156 -7.882812 2.515625 -7.6875 C 2.378906 -7.5 2.269531 -7.273438 2.1875 -7.015625 C 2.113281 -6.753906 2.078125 -6.472656 2.078125 -6.171875 C 2.078125 -5.898438 2.109375 -5.632812 2.171875 -5.375 C 2.242188 -5.125 2.347656 -4.894531 2.484375 -4.6875 C 2.617188 -4.488281 2.789062 -4.328125 3 -4.203125 C 3.207031 -4.085938 3.453125 -4.03125 3.734375 -4.03125 Z M 3.734375 -4.03125 "/></g></g><g transform="translate(509.676503, 135.273368)"><g><path d="M 4.859375 0 L 3.703125 0 L 3.703125 -7.671875 L 1.3125 -6.765625 L 1.3125 -7.828125 L 4.765625 -9.15625 L 4.859375 -9.15625 Z M 4.859375 0 "/></g></g><g transform="translate(517.404223, 135.273368)"><g><path d="M 0.28125 -7.5 C 0.28125 -7.738281 0.316406 -7.96875 0.390625 -8.1875 C 0.460938 -8.40625 0.566406 -8.59375 0.703125 -8.75 C 0.847656 -8.914062 1.023438 -9.046875 1.234375 -9.140625 C 1.441406 -9.234375 1.679688 -9.28125 1.953125 -9.28125 C 2.234375 -9.28125 2.476562 -9.234375 2.6875 -9.140625 C 2.894531 -9.046875 3.066406 -8.914062 3.203125 -8.75 C 3.347656 -8.59375 3.457031 -8.40625 3.53125 -8.1875 C 3.601562 -7.96875 3.640625 -7.738281 3.640625 -7.5 L 3.640625 -7.015625 C 3.640625 -6.773438 3.601562 -6.546875 3.53125 -6.328125 C 3.457031 -6.117188 3.347656 -5.929688 3.203125 -5.765625 C 3.066406 -5.609375 2.894531 -5.484375 2.6875 -5.390625 C 2.476562 -5.296875 2.238281 -5.25 1.96875 -5.25 C 1.695312 -5.25 1.453125 -5.296875 1.234375 -5.390625 C 1.023438 -5.484375 0.847656 -5.609375 0.703125 -5.765625 C 0.566406 -5.929688 0.460938 -6.117188 0.390625 -6.328125 C 0.316406 -6.546875 0.28125 -6.773438 0.28125 -7.015625 Z M 1.140625 -7.015625 C 1.140625 -6.890625 1.15625 -6.765625 1.1875 -6.640625 C 1.21875 -6.523438 1.265625 -6.421875 1.328125 -6.328125 C 1.398438 -6.234375 1.484375 -6.15625 1.578125 -6.09375 C 1.679688 -6.039062 1.8125 -6.015625 1.96875 -6.015625 C 2.113281 -6.015625 2.238281 -6.039062 2.34375 -6.09375 C 2.445312 -6.15625 2.53125 -6.234375 2.59375 -6.328125 C 2.65625 -6.421875 2.703125 -6.523438 2.734375 -6.640625 C 2.765625 -6.765625 2.78125 -6.890625 2.78125 -7.015625 L 2.78125 -7.5 C 2.78125 -7.632812 2.765625 -7.765625 2.734375 -7.890625 C 2.703125 -8.015625 2.648438 -8.125 2.578125 -8.21875 C 2.515625 -8.3125 2.429688 -8.382812 2.328125 -8.4375 C 2.234375 -8.5 2.109375 -8.53125 1.953125 -8.53125 C 1.804688 -8.53125 1.679688 -8.5 1.578125 -8.4375 C 1.472656 -8.382812 1.390625 -8.3125 1.328125 -8.21875 C 1.265625 -8.125 1.21875 -8.015625 1.1875 -7.890625 C 1.15625 -7.765625 1.140625 -7.632812 1.140625 -7.5 Z M 4.0625 -2.125 C 4.0625 -2.363281 4.097656 -2.585938 4.171875 -2.796875 C 4.242188 -3.015625 4.347656 -3.203125 4.484375 -3.359375 C 4.628906 -3.523438 4.804688 -3.65625 5.015625 -3.75 C 5.222656 -3.84375 5.460938 -3.890625 5.734375 -3.890625 C 6.015625 -3.890625 6.257812 -3.84375 6.46875 -3.75 C 6.675781 -3.65625 6.847656 -3.523438 6.984375 -3.359375 C 7.128906 -3.203125 7.238281 -3.015625 7.3125 -2.796875 C 7.394531 -2.585938 7.4375 -2.363281 7.4375 -2.125 L 7.4375 -1.640625 C 7.4375 -1.398438 7.394531 -1.171875 7.3125 -0.953125 C 7.238281 -0.742188 7.128906 -0.554688 6.984375 -0.390625 C 6.847656 -0.234375 6.675781 -0.109375 6.46875 -0.015625 C 6.257812 0.078125 6.019531 0.125 5.75 0.125 C 5.476562 0.125 5.234375 0.078125 5.015625 -0.015625 C 4.804688 -0.109375 4.628906 -0.234375 4.484375 -0.390625 C 4.347656 -0.554688 4.242188 -0.742188 4.171875 -0.953125 C 4.097656 -1.171875 4.0625 -1.398438 4.0625 -1.640625 Z M 4.921875 -1.640625 C 4.921875 -1.503906 4.9375 -1.375 4.96875 -1.25 C 5 -1.132812 5.046875 -1.03125 5.109375 -0.9375 C 5.179688 -0.84375 5.269531 -0.765625 5.375 -0.703125 C 5.476562 -0.648438 5.601562 -0.625 5.75 -0.625 C 5.894531 -0.625 6.019531 -0.648438 6.125 -0.703125 C 6.226562 -0.765625 6.3125 -0.84375 6.375 -0.9375 C 6.4375 -1.03125 6.484375 -1.132812 6.515625 -1.25 C 6.546875 -1.375 6.5625 -1.503906 6.5625 -1.640625 L 6.5625 -2.125 C 6.5625 -2.25 6.546875 -2.375 6.515625 -2.5 C 6.484375 -2.625 6.4375 -2.734375 6.375 -2.828125 C 6.3125 -2.921875 6.222656 -2.992188 6.109375 -3.046875 C 6.003906 -3.109375 5.878906 -3.140625 5.734375 -3.140625 C 5.585938 -3.140625 5.460938 -3.109375 5.359375 -3.046875 C 5.253906 -2.992188 5.171875 -2.921875 5.109375 -2.828125 C 5.046875 -2.734375 5 -2.625 4.96875 -2.5 C 4.9375 -2.375 4.921875 -2.25 4.921875 -2.125 Z M 2.5 -1.1875 L 1.796875 -1.578125 L 5.375 -8.09375 L 6.0625 -7.703125 Z M 2.5 -1.1875 "/></g></g></g><g fill="#000000" fill-opacity="1"><g transform="translate(501.948783, 172.094793)"><g><path d="M 2.34375 -1.03125 C 2.757812 -1.03125 3.125 -1.066406 3.4375 -1.140625 C 3.75 -1.210938 4.019531 -1.316406 4.25 -1.453125 C 4.488281 -1.585938 4.6875 -1.742188 4.84375 -1.921875 C 5 -2.109375 5.125 -2.3125 5.21875 -2.53125 C 5.320312 -2.75 5.394531 -2.976562 5.4375 -3.21875 C 5.476562 -3.46875 5.507812 -3.722656 5.53125 -3.984375 C 5.425781 -3.859375 5.304688 -3.738281 5.171875 -3.625 C 5.046875 -3.507812 4.898438 -3.410156 4.734375 -3.328125 C 4.578125 -3.242188 4.394531 -3.175781 4.1875 -3.125 C 3.988281 -3.082031 3.773438 -3.0625 3.546875 -3.0625 C 3.085938 -3.0625 2.691406 -3.148438 2.359375 -3.328125 C 2.035156 -3.503906 1.765625 -3.738281 1.546875 -4.03125 C 1.335938 -4.320312 1.179688 -4.648438 1.078125 -5.015625 C 0.984375 -5.378906 0.9375 -5.742188 0.9375 -6.109375 C 0.9375 -6.546875 0.992188 -6.953125 1.109375 -7.328125 C 1.234375 -7.710938 1.410156 -8.046875 1.640625 -8.328125 C 1.878906 -8.617188 2.175781 -8.847656 2.53125 -9.015625 C 2.882812 -9.191406 3.296875 -9.28125 3.765625 -9.28125 C 4.117188 -9.28125 4.4375 -9.226562 4.71875 -9.125 C 5.007812 -9.03125 5.257812 -8.894531 5.46875 -8.71875 C 5.6875 -8.550781 5.875 -8.347656 6.03125 -8.109375 C 6.1875 -7.867188 6.3125 -7.609375 6.40625 -7.328125 C 6.507812 -7.054688 6.582031 -6.769531 6.625 -6.46875 C 6.664062 -6.175781 6.6875 -5.878906 6.6875 -5.578125 L 6.6875 -5.15625 C 6.6875 -4.769531 6.664062 -4.367188 6.625 -3.953125 C 6.59375 -3.546875 6.519531 -3.148438 6.40625 -2.765625 C 6.300781 -2.390625 6.144531 -2.03125 5.9375 -1.6875 C 5.738281 -1.351562 5.476562 -1.0625 5.15625 -0.8125 C 4.832031 -0.5625 4.441406 -0.363281 3.984375 -0.21875 C 3.523438 -0.0703125 2.976562 0 2.34375 0 L 2.21875 0 L 2.21875 -1.03125 Z M 3.734375 -4.03125 C 3.929688 -4.03125 4.125 -4.0625 4.3125 -4.125 C 4.5 -4.1875 4.671875 -4.273438 4.828125 -4.390625 C 4.984375 -4.515625 5.125 -4.65625 5.25 -4.8125 C 5.375 -4.976562 5.46875 -5.160156 5.53125 -5.359375 L 5.53125 -5.734375 C 5.53125 -6.140625 5.484375 -6.5 5.390625 -6.8125 C 5.296875 -7.132812 5.164062 -7.40625 5 -7.625 C 4.84375 -7.84375 4.660156 -8.007812 4.453125 -8.125 C 4.242188 -8.25 4.019531 -8.3125 3.78125 -8.3125 C 3.507812 -8.3125 3.265625 -8.253906 3.046875 -8.140625 C 2.835938 -8.035156 2.660156 -7.882812 2.515625 -7.6875 C 2.378906 -7.5 2.269531 -7.273438 2.1875 -7.015625 C 2.113281 -6.753906 2.078125 -6.472656 2.078125 -6.171875 C 2.078125 -5.898438 2.109375 -5.632812 2.171875 -5.375 C 2.242188 -5.125 2.347656 -4.894531 2.484375 -4.6875 C 2.617188 -4.488281 2.789062 -4.328125 3 -4.203125 C 3.207031 -4.085938 3.453125 -4.03125 3.734375 -4.03125 Z M 3.734375 -4.03125 "/></g></g><g transform="translate(509.676503, 172.094793)"><g><path d="M 6.84375 -3.5 C 6.84375 -2.914062 6.773438 -2.398438 6.640625 -1.953125 C 6.503906 -1.503906 6.3125 -1.125 6.0625 -0.8125 C 5.8125 -0.507812 5.503906 -0.273438 5.140625 -0.109375 C 4.773438 0.046875 4.359375 0.125 3.890625 0.125 C 3.421875 0.125 3.003906 0.046875 2.640625 -0.109375 C 2.273438 -0.273438 1.960938 -0.507812 1.703125 -0.8125 C 1.441406 -1.125 1.242188 -1.503906 1.109375 -1.953125 C 0.972656 -2.398438 0.90625 -2.914062 0.90625 -3.5 L 0.90625 -5.640625 C 0.90625 -6.222656 0.972656 -6.738281 1.109375 -7.1875 C 1.242188 -7.644531 1.4375 -8.023438 1.6875 -8.328125 C 1.945312 -8.640625 2.257812 -8.875 2.625 -9.03125 C 2.988281 -9.195312 3.40625 -9.28125 3.875 -9.28125 C 4.34375 -9.28125 4.757812 -9.195312 5.125 -9.03125 C 5.488281 -8.875 5.796875 -8.640625 6.046875 -8.328125 C 6.304688 -8.023438 6.503906 -7.644531 6.640625 -7.1875 C 6.773438 -6.738281 6.84375 -6.222656 6.84375 -5.640625 Z M 2.078125 -3.734375 L 5.640625 -6.46875 C 5.578125 -7.070312 5.398438 -7.53125 5.109375 -7.84375 C 4.828125 -8.164062 4.414062 -8.328125 3.875 -8.328125 C 3.257812 -8.328125 2.804688 -8.117188 2.515625 -7.703125 C 2.222656 -7.296875 2.078125 -6.695312 2.078125 -5.90625 Z M 5.671875 -5.359375 L 2.109375 -2.640625 C 2.179688 -2.046875 2.363281 -1.59375 2.65625 -1.28125 C 2.945312 -0.96875 3.359375 -0.8125 3.890625 -0.8125 C 4.503906 -0.8125 4.953125 -1.019531 5.234375 -1.4375 C 5.523438 -1.863281 5.671875 -2.46875 5.671875 -3.25 Z M 5.671875 -5.359375 "/></g></g><g transform="translate(517.404223, 172.094793)"><g><path d="M 0.28125 -7.5 C 0.28125 -7.738281 0.316406 -7.96875 0.390625 -8.1875 C 0.460938 -8.40625 0.566406 -8.59375 0.703125 -8.75 C 0.847656 -8.914062 1.023438 -9.046875 1.234375 -9.140625 C 1.441406 -9.234375 1.679688 -9.28125 1.953125 -9.28125 C 2.234375 -9.28125 2.476562 -9.234375 2.6875 -9.140625 C 2.894531 -9.046875 3.066406 -8.914062 3.203125 -8.75 C 3.347656 -8.59375 3.457031 -8.40625 3.53125 -8.1875 C 3.601562 -7.96875 3.640625 -7.738281 3.640625 -7.5 L 3.640625 -7.015625 C 3.640625 -6.773438 3.601562 -6.546875 3.53125 -6.328125 C 3.457031 -6.117188 3.347656 -5.929688 3.203125 -5.765625 C 3.066406 -5.609375 2.894531 -5.484375 2.6875 -5.390625 C 2.476562 -5.296875 2.238281 -5.25 1.96875 -5.25 C 1.695312 -5.25 1.453125 -5.296875 1.234375 -5.390625 C 1.023438 -5.484375 0.847656 -5.609375 0.703125 -5.765625 C 0.566406 -5.929688 0.460938 -6.117188 0.390625 -6.328125 C 0.316406 -6.546875 0.28125 -6.773438 0.28125 -7.015625 Z M 1.140625 -7.015625 C 1.140625 -6.890625 1.15625 -6.765625 1.1875 -6.640625 C 1.21875 -6.523438 1.265625 -6.421875 1.328125 -6.328125 C 1.398438 -6.234375 1.484375 -6.15625 1.578125 -6.09375 C 1.679688 -6.039062 1.8125 -6.015625 1.96875 -6.015625 C 2.113281 -6.015625 2.238281 -6.039062 2.34375 -6.09375 C 2.445312 -6.15625 2.53125 -6.234375 2.59375 -6.328125 C 2.65625 -6.421875 2.703125 -6.523438 2.734375 -6.640625 C 2.765625 -6.765625 2.78125 -6.890625 2.78125 -7.015625 L 2.78125 -7.5 C 2.78125 -7.632812 2.765625 -7.765625 2.734375 -7.890625 C 2.703125 -8.015625 2.648438 -8.125 2.578125 -8.21875 C 2.515625 -8.3125 2.429688 -8.382812 2.328125 -8.4375 C 2.234375 -8.5 2.109375 -8.53125 1.953125 -8.53125 C 1.804688 -8.53125 1.679688 -8.5 1.578125 -8.4375 C 1.472656 -8.382812 1.390625 -8.3125 1.328125 -8.21875 C 1.265625 -8.125 1.21875 -8.015625 1.1875 -7.890625 C 1.15625 -7.765625 1.140625 -7.632812 1.140625 -7.5 Z M 4.0625 -2.125 C 4.0625 -2.363281 4.097656 -2.585938 4.171875 -2.796875 C 4.242188 -3.015625 4.347656 -3.203125 4.484375 -3.359375 C 4.628906 -3.523438 4.804688 -3.65625 5.015625 -3.75 C 5.222656 -3.84375 5.460938 -3.890625 5.734375 -3.890625 C 6.015625 -3.890625 6.257812 -3.84375 6.46875 -3.75 C 6.675781 -3.65625 6.847656 -3.523438 6.984375 -3.359375 C 7.128906 -3.203125 7.238281 -3.015625 7.3125 -2.796875 C 7.394531 -2.585938 7.4375 -2.363281 7.4375 -2.125 L 7.4375 -1.640625 C 7.4375 -1.398438 7.394531 -1.171875 7.3125 -0.953125 C 7.238281 -0.742188 7.128906 -0.554688 6.984375 -0.390625 C 6.847656 -0.234375 6.675781 -0.109375 6.46875 -0.015625 C 6.257812 0.078125 6.019531 0.125 5.75 0.125 C 5.476562 0.125 5.234375 0.078125 5.015625 -0.015625 C 4.804688 -0.109375 4.628906 -0.234375 4.484375 -0.390625 C 4.347656 -0.554688 4.242188 -0.742188 4.171875 -0.953125 C 4.097656 -1.171875 4.0625 -1.398438 4.0625 -1.640625 Z M 4.921875 -1.640625 C 4.921875 -1.503906 4.9375 -1.375 4.96875 -1.25 C 5 -1.132812 5.046875 -1.03125 5.109375 -0.9375 C 5.179688 -0.84375 5.269531 -0.765625 5.375 -0.703125 C 5.476562 -0.648438 5.601562 -0.625 5.75 -0.625 C 5.894531 -0.625 6.019531 -0.648438 6.125 -0.703125 C 6.226562 -0.765625 6.3125 -0.84375 6.375 -0.9375 C 6.4375 -1.03125 6.484375 -1.132812 6.515625 -1.25 C 6.546875 -1.375 6.5625 -1.503906 6.5625 -1.640625 L 6.5625 -2.125 C 6.5625 -2.25 6.546875 -2.375 6.515625 -2.5 C 6.484375 -2.625 6.4375 -2.734375 6.375 -2.828125 C 6.3125 -2.921875 6.222656 -2.992188 6.109375 -3.046875 C 6.003906 -3.109375 5.878906 -3.140625 5.734375 -3.140625 C 5.585938 -3.140625 5.460938 -3.109375 5.359375 -3.046875 C 5.253906 -2.992188 5.171875 -2.921875 5.109375 -2.828125 C 5.046875 -2.734375 5 -2.625 4.96875 -2.5 C 4.9375 -2.375 4.921875 -2.25 4.921875 -2.125 Z M 2.5 -1.1875 L 1.796875 -1.578125 L 5.375 -8.09375 L 6.0625 -7.703125 Z M 2.5 -1.1875 "/></g></g></g><path fill="#000000" d="M 276.777344 103.199219 C 276.484375 102.910156 276.148438 102.683594 275.773438 102.515625 C 275.398438 102.351562 275.003906 102.257812 274.59375 102.234375 C 274.183594 102.210938 273.78125 102.261719 273.390625 102.382812 C 273 102.507812 272.640625 102.695312 272.316406 102.949219 C 272.75 101.457031 273.28125 100 273.910156 98.578125 C 274.542969 97.160156 275.265625 95.785156 276.082031 94.464844 C 276.898438 93.140625 277.800781 91.878906 278.785156 90.679688 C 279.773438 89.480469 280.835938 88.351562 281.976562 87.296875 C 283.117188 86.242188 284.324219 85.269531 285.59375 84.375 C 286.867188 83.484375 288.191406 82.683594 289.574219 81.972656 C 290.953125 81.261719 292.375 80.648438 293.839844 80.128906 C 295.304688 79.613281 296.796875 79.195312 298.316406 78.878906 C 299.835938 78.566406 301.371094 78.355469 302.917969 78.25 C 304.46875 78.140625 306.015625 78.140625 307.566406 78.246094 C 309.113281 78.351562 310.648438 78.558594 312.171875 78.871094 C 313.691406 79.183594 315.183594 79.597656 316.648438 80.113281 C 318.113281 80.628906 319.535156 81.242188 320.917969 81.953125 C 322.296875 82.660156 323.625 83.460938 324.898438 84.351562 C 326.171875 85.242188 327.378906 86.210938 328.519531 87.265625 C 329.660156 88.320312 330.726562 89.445312 331.714844 90.644531 C 332.007812 90.996094 332.355469 91.277344 332.757812 91.492188 C 333.160156 91.703125 333.589844 91.832031 334.042969 91.871094 C 334.496094 91.914062 334.941406 91.867188 335.375 91.730469 C 335.808594 91.597656 336.203125 91.382812 336.554688 91.09375 C 336.902344 90.800781 337.183594 90.453125 337.398438 90.050781 C 337.609375 89.644531 337.734375 89.214844 337.777344 88.761719 C 337.820312 88.308594 337.773438 87.863281 337.636719 87.425781 C 337.503906 86.992188 337.289062 86.597656 337 86.246094 C 335.757812 84.742188 334.417969 83.335938 332.980469 82.019531 C 331.539062 80.707031 330.015625 79.503906 328.402344 78.40625 C 326.792969 77.308594 325.113281 76.332031 323.363281 75.472656 C 321.617188 74.613281 319.816406 73.886719 317.960938 73.28125 C 316.109375 72.679688 314.222656 72.210938 312.304688 71.878906 C 310.386719 71.542969 308.453125 71.347656 306.507812 71.289062 C 304.5625 71.230469 302.621094 71.308594 300.683594 71.523438 C 298.75 71.742188 296.839844 72.09375 294.953125 72.582031 C 293.066406 73.070312 291.226562 73.6875 289.429688 74.4375 C 287.628906 75.1875 285.894531 76.0625 284.21875 77.058594 C 282.546875 78.054688 280.949219 79.164062 279.433594 80.386719 C 277.917969 81.609375 276.492188 82.9375 275.164062 84.359375 C 273.835938 85.785156 272.613281 87.300781 271.496094 88.898438 C 270.382812 90.5 269.386719 92.167969 268.507812 93.910156 C 267.628906 95.648438 266.878906 97.445312 266.253906 99.292969 C 265.632812 101.140625 265.140625 103.023438 264.78125 104.941406 L 263.066406 103.222656 C 262.742188 102.910156 262.375 102.667969 261.957031 102.503906 C 261.539062 102.335938 261.105469 102.253906 260.65625 102.257812 C 260.203125 102.261719 259.773438 102.351562 259.359375 102.523438 C 258.941406 102.699219 258.578125 102.945312 258.257812 103.265625 C 257.941406 103.582031 257.695312 103.949219 257.519531 104.363281 C 257.347656 104.78125 257.257812 105.214844 257.253906 105.664062 C 257.25 106.113281 257.332031 106.550781 257.496094 106.96875 C 257.664062 107.386719 257.902344 107.757812 258.214844 108.082031 L 265.078125 114.953125 C 265.398438 115.277344 265.769531 115.523438 266.191406 115.699219 C 266.609375 115.871094 267.050781 115.960938 267.503906 115.960938 C 267.957031 115.960938 268.394531 115.871094 268.816406 115.699219 C 269.238281 115.523438 269.609375 115.277344 269.929688 114.953125 L 276.789062 108.082031 C 277.117188 107.757812 277.363281 107.382812 277.539062 106.960938 C 277.714844 106.535156 277.800781 106.09375 277.800781 105.636719 C 277.800781 105.179688 277.710938 104.738281 277.53125 104.316406 C 277.355469 103.890625 277.101562 103.519531 276.777344 103.199219 Z M 276.777344 103.199219 " fill-opacity="1" fill-rule="nonzero"/><g clip-path="url(#aa9cb0e5f0)"><path fill="#000000" d="M 352.257812 116.941406 L 345.394531 110.070312 C 345.074219 109.75 344.703125 109.5 344.28125 109.324219 C 343.859375 109.152344 343.421875 109.066406 342.96875 109.066406 C 342.515625 109.066406 342.078125 109.152344 341.65625 109.324219 C 341.234375 109.5 340.863281 109.75 340.542969 110.070312 L 333.679688 116.941406 C 333.359375 117.265625 333.113281 117.636719 332.9375 118.058594 C 332.765625 118.480469 332.675781 118.917969 332.675781 119.371094 C 332.675781 119.828125 332.765625 120.265625 332.9375 120.6875 C 333.113281 121.109375 333.359375 121.480469 333.679688 121.800781 C 333.976562 122.089844 334.308594 122.316406 334.683594 122.484375 C 335.0625 122.648438 335.453125 122.742188 335.863281 122.765625 C 336.273438 122.789062 336.675781 122.738281 337.070312 122.617188 C 337.460938 122.492188 337.816406 122.304688 338.140625 122.050781 C 337.707031 123.542969 337.175781 125 336.546875 126.421875 C 335.917969 127.839844 335.191406 129.214844 334.378906 130.535156 C 333.5625 131.859375 332.660156 133.121094 331.671875 134.320312 C 330.683594 135.519531 329.621094 136.648438 328.480469 137.703125 C 327.339844 138.757812 326.136719 139.730469 324.863281 140.625 C 323.589844 141.515625 322.265625 142.316406 320.886719 143.027344 C 319.503906 143.738281 318.082031 144.351562 316.617188 144.871094 C 315.15625 145.386719 313.664062 145.804688 312.140625 146.121094 C 310.621094 146.433594 309.085938 146.644531 307.539062 146.75 C 305.992188 146.859375 304.441406 146.859375 302.890625 146.753906 C 301.34375 146.648438 299.808594 146.441406 298.289062 146.128906 C 296.769531 145.816406 295.273438 145.402344 293.8125 144.886719 C 292.347656 144.371094 290.921875 143.757812 289.542969 143.046875 C 288.160156 142.339844 286.832031 141.539062 285.558594 140.648438 C 284.285156 139.757812 283.078125 138.789062 281.9375 137.734375 C 280.796875 136.679688 279.730469 135.554688 278.742188 134.355469 C 278.453125 134.003906 278.105469 133.722656 277.703125 133.507812 C 277.296875 133.296875 276.871094 133.167969 276.417969 133.128906 C 275.964844 133.085938 275.519531 133.132812 275.082031 133.269531 C 274.648438 133.402344 274.257812 133.617188 273.90625 133.90625 C 273.554688 134.199219 273.273438 134.546875 273.0625 134.949219 C 272.851562 135.355469 272.722656 135.785156 272.679688 136.238281 C 272.640625 136.691406 272.683594 137.136719 272.820312 137.574219 C 272.957031 138.007812 273.167969 138.402344 273.460938 138.753906 C 274.699219 140.257812 276.039062 141.664062 277.480469 142.980469 C 278.917969 144.292969 280.445312 145.496094 282.054688 146.59375 C 283.664062 147.691406 285.34375 148.667969 287.09375 149.527344 C 288.84375 150.386719 290.644531 151.113281 292.496094 151.71875 C 294.347656 152.320312 296.234375 152.789062 298.152344 153.121094 C 300.070312 153.457031 302.003906 153.652344 303.949219 153.710938 C 305.898438 153.769531 307.839844 153.691406 309.773438 153.476562 C 311.710938 153.257812 313.621094 152.90625 315.503906 152.417969 C 317.390625 151.929688 319.234375 151.3125 321.03125 150.5625 C 322.828125 149.8125 324.566406 148.9375 326.238281 147.941406 C 327.914062 146.945312 329.507812 145.835938 331.027344 144.613281 C 332.542969 143.390625 333.964844 142.0625 335.292969 140.640625 C 336.625 139.214844 337.847656 137.699219 338.960938 136.101562 C 340.074219 134.5 341.070312 132.832031 341.949219 131.089844 C 342.828125 129.351562 343.578125 127.554688 344.203125 125.707031 C 344.828125 123.859375 345.320312 121.976562 345.675781 120.058594 L 347.390625 121.777344 C 347.714844 122.089844 348.085938 122.332031 348.503906 122.496094 C 348.921875 122.664062 349.355469 122.746094 349.804688 122.742188 C 350.253906 122.738281 350.6875 122.648438 351.101562 122.476562 C 351.515625 122.300781 351.882812 122.054688 352.199219 121.734375 C 352.519531 121.417969 352.765625 121.050781 352.9375 120.636719 C 353.113281 120.21875 353.203125 119.785156 353.207031 119.335938 C 353.210938 118.886719 353.128906 118.449219 352.960938 118.03125 C 352.792969 117.613281 352.554688 117.242188 352.242188 116.917969 Z M 352.257812 116.941406 " fill-opacity="1" fill-rule="nonzero"/></g><g clip-path="url(#648b91905f)"><path fill="#efefef" d="M 369.261719 79.566406 L 393.074219 79.566406 L 393.074219 108.625 L 369.261719 108.625 Z M 369.261719 79.566406 " fill-opacity="1" fill-rule="nonzero"/></g><g clip-path="url(#1472c8db28)"><path stroke-linecap="butt" transform="matrix(0.1875, 0, 0, 0.185088, 336.169438, 60.780953)" fill="none" stroke-linejoin="miter" d="M 176.492171 101.494967 L 303.492177 101.494967 L 303.492177 258.494162 L 176.492171 258.494162 Z M 176.492171 101.494967 " stroke="#dcdcdc" stroke-width="5" stroke-opacity="1" stroke-miterlimit="10"/></g><path stroke-linecap="round" transform="matrix(0.1875, 0, 0, 0.185088, 336.169438, 60.780953)" fill="none" stroke-linejoin="miter" d="M 189.492172 119.835107 L 251.492175 119.835107 " stroke="#000000" stroke-width="5" stroke-opacity="1" stroke-miterlimit="10"/><path stroke-linecap="round" transform="matrix(0.1875, 0, 0, 0.185088, 336.169438, 60.780953)" fill="none" stroke-linejoin="miter" d="M 189.825505 130.830749 L 260.158842 130.830749 " stroke="#000000" stroke-width="5" stroke-opacity="1" stroke-miterlimit="10"/><path stroke-linecap="round" transform="matrix(0.1875, 0, 0, 0.185088, 336.169438, 60.780953)" fill="none" stroke-linejoin="miter" d="M 190.492172 142.164069 L 234.15884 142.164069 " stroke="#000000" stroke-width="5" stroke-opacity="1" stroke-miterlimit="10"/><path stroke-linecap="round" transform="matrix(0.1875, 0, 0, 0.185088, 336.169438, 60.780953)" fill="none" stroke-linejoin="miter" d="M 190.825505 160.504209 L 256.825508 160.504209 " stroke="#000000" stroke-width="5" stroke-opacity="1" stroke-miterlimit="10"/><path stroke-linecap="round" transform="matrix(0.1875, 0, 0, 0.185088, 336.169438, 60.780953)" fill="none" stroke-linejoin="miter" d="M 192.158839 170.170243 L 281.158842 170.170243 " stroke="#000000" stroke-width="5" stroke-opacity="1" stroke-miterlimit="10"/><path stroke-linecap="round" transform="matrix(0.1875, 0, 0, 0.185088, 336.169438, 60.780953)" fill="none" stroke-linejoin="miter" d="M 192.158839 181.165885 L 264.158842 181.165885 " stroke="#000000" stroke-width="5" stroke-opacity="1" stroke-miterlimit="10"/><path stroke-linecap="round" transform="matrix(0.1875, 0, 0, 0.185088, 336.169438, 60.780953)" fill="none" stroke-linejoin="miter" d="M 191.492172 200.497954 L 240.158841 200.497954 " stroke="#000000" stroke-width="5" stroke-opacity="1" stroke-miterlimit="10"/><path stroke-linecap="round" transform="matrix(0.1875, 0, 0, 0.185088, 336.169438, 60.780953)" fill="none" stroke-linejoin="miter" d="M 192.158839 210.839345 L 275.492176 210.839345 " stroke="#000000" stroke-width="5" stroke-opacity="1" stroke-miterlimit="10"/><path stroke-linecap="round" transform="matrix(0.1875, 0, 0, 0.185088, 336.169438, 60.780953)" fill="none" stroke-linejoin="miter" d="M 191.492172 219.492345 L 259.825508 219.492345 " stroke="#000000" stroke-width="5" stroke-opacity="1" stroke-miterlimit="10"/><path stroke-linecap="round" transform="matrix(0.1875, 0, 0, 0.185088, 336.169438, 60.780953)" fill="none" stroke-linejoin="miter" d="M 191.492172 229.833736 L 272.158842 229.833736 " stroke="#000000" stroke-width="5" stroke-opacity="1" stroke-miterlimit="10"/><g clip-path="url(#4730c1c296)"><path fill="#efefef" d="M 369.261719 116.71875 L 393.074219 116.71875 L 393.074219 145.78125 L 369.261719 145.78125 Z M 369.261719 116.71875 " fill-opacity="1" fill-rule="nonzero"/></g><g clip-path="url(#c9349f6056)"><path stroke-linecap="butt" transform="matrix(0.1875, 0, 0, 0.185088, 336.169438, 97.934252)" fill="none" stroke-linejoin="miter" d="M 176.492171 101.489805 L 303.492177 101.489805 L 303.492177 258.510104 L 176.492171 258.510104 Z M 176.492171 101.489805 " stroke="#dcdcdc" stroke-width="5" stroke-opacity="1" stroke-miterlimit="10"/></g><path stroke-linecap="round" transform="matrix(0.1875, 0, 0, 0.185088, 336.169438, 97.934252)" fill="none" stroke-linejoin="miter" d="M 189.492172 119.829945 L 251.492175 119.829945 " stroke="#000000" stroke-width="5" stroke-opacity="1" stroke-miterlimit="10"/><path stroke-linecap="round" transform="matrix(0.1875, 0, 0, 0.185088, 336.169438, 97.934252)" fill="none" stroke-linejoin="miter" d="M 189.825505 130.825587 L 260.158842 130.825587 " stroke="#000000" stroke-width="5" stroke-opacity="1" stroke-miterlimit="10"/><path stroke-linecap="round" transform="matrix(0.1875, 0, 0, 0.185088, 336.169438, 97.934252)" fill="none" stroke-linejoin="miter" d="M 190.492172 142.158907 L 234.15884 142.158907 " stroke="#000000" stroke-width="5" stroke-opacity="1" stroke-miterlimit="10"/><path stroke-linecap="round" transform="matrix(0.1875, 0, 0, 0.185088, 336.169438, 97.934252)" fill="none" stroke-linejoin="miter" d="M 190.825505 160.499046 L 256.825508 160.499046 " stroke="#000000" stroke-width="5" stroke-opacity="1" stroke-miterlimit="10"/><path stroke-linecap="round" transform="matrix(0.1875, 0, 0, 0.185088, 336.169438, 97.934252)" fill="none" stroke-linejoin="miter" d="M 192.158839 170.165081 L 281.158842 170.165081 " stroke="#000000" stroke-width="5" stroke-opacity="1" stroke-miterlimit="10"/><path stroke-linecap="round" transform="matrix(0.1875, 0, 0, 0.185088, 336.169438, 97.934252)" fill="none" stroke-linejoin="miter" d="M 192.158839 181.160723 L 264.158842 181.160723 " stroke="#000000" stroke-width="5" stroke-opacity="1" stroke-miterlimit="10"/><path stroke-linecap="round" transform="matrix(0.1875, 0, 0, 0.185088, 336.169438, 97.934252)" fill="none" stroke-linejoin="miter" d="M 191.492172 200.492792 L 240.158841 200.492792 " stroke="#000000" stroke-width="5" stroke-opacity="1" stroke-miterlimit="10"/><path stroke-linecap="round" transform="matrix(0.1875, 0, 0, 0.185088, 336.169438, 97.934252)" fill="none" stroke-linejoin="miter" d="M 192.158839 210.834183 L 275.492176 210.834183 " stroke="#000000" stroke-width="5" stroke-opacity="1" stroke-miterlimit="10"/><path stroke-linecap="round" transform="matrix(0.1875, 0, 0, 0.185088, 336.169438, 97.934252)" fill="none" stroke-linejoin="miter" d="M 191.492172 219.508288 L 259.825508 219.508288 " stroke="#000000" stroke-width="5" stroke-opacity="1" stroke-miterlimit="10"/><path stroke-linecap="round" transform="matrix(0.1875, 0, 0, 0.185088, 336.169438, 97.934252)" fill="none" stroke-linejoin="miter" d="M 191.492172 229.828574 L 272.158842 229.828574 " stroke="#000000" stroke-width="5" stroke-opacity="1" stroke-miterlimit="10"/><g clip-path="url(#53c062efa9)"><path fill="#efefef" d="M 369.261719 153.777344 L 393.074219 153.777344 L 393.074219 182.835938 L 369.261719 182.835938 Z M 369.261719 153.777344 " fill-opacity="1" fill-rule="nonzero"/></g><g clip-path="url(#d892bb70d3)"><path stroke-linecap="butt" transform="matrix(0.1875, 0, 0, 0.185088, 336.169438, 134.99022)" fill="none" stroke-linejoin="miter" d="M 176.492171 101.503995 L 303.492177 101.503995 L 303.492177 258.50319 L 176.492171 258.50319 Z M 176.492171 101.503995 " stroke="#dcdcdc" stroke-width="5" stroke-opacity="1" stroke-miterlimit="10"/></g><path stroke-linecap="round" transform="matrix(0.1875, 0, 0, 0.185088, 336.169438, 134.99022)" fill="none" stroke-linejoin="miter" d="M 189.492172 119.82303 L 251.492175 119.82303 " stroke="#000000" stroke-width="5" stroke-opacity="1" stroke-miterlimit="10"/><path stroke-linecap="round" transform="matrix(0.1875, 0, 0, 0.185088, 336.169438, 134.99022)" fill="none" stroke-linejoin="miter" d="M 189.825505 130.839777 L 260.158842 130.839777 " stroke="#000000" stroke-width="5" stroke-opacity="1" stroke-miterlimit="10"/><path stroke-linecap="round" transform="matrix(0.1875, 0, 0, 0.185088, 336.169438, 134.99022)" fill="none" stroke-linejoin="miter" d="M 190.492172 142.173097 L 234.15884 142.173097 " stroke="#000000" stroke-width="5" stroke-opacity="1" stroke-miterlimit="10"/><path stroke-linecap="round" transform="matrix(0.1875, 0, 0, 0.185088, 336.169438, 134.99022)" fill="none" stroke-linejoin="miter" d="M 190.825505 160.492132 L 256.825508 160.492132 " stroke="#000000" stroke-width="5" stroke-opacity="1" stroke-miterlimit="10"/><path stroke-linecap="round" transform="matrix(0.1875, 0, 0, 0.185088, 336.169438, 134.99022)" fill="none" stroke-linejoin="miter" d="M 192.158839 170.158167 L 281.158842 170.158167 " stroke="#000000" stroke-width="5" stroke-opacity="1" stroke-miterlimit="10"/><path stroke-linecap="round" transform="matrix(0.1875, 0, 0, 0.185088, 336.169438, 134.99022)" fill="none" stroke-linejoin="miter" d="M 192.158839 181.174913 L 264.158842 181.174913 " stroke="#000000" stroke-width="5" stroke-opacity="1" stroke-miterlimit="10"/><path stroke-linecap="round" transform="matrix(0.1875, 0, 0, 0.185088, 336.169438, 134.99022)" fill="none" stroke-linejoin="miter" d="M 191.492172 200.506983 L 240.158841 200.506983 " stroke="#000000" stroke-width="5" stroke-opacity="1" stroke-miterlimit="10"/><path stroke-linecap="round" transform="matrix(0.1875, 0, 0, 0.185088, 336.169438, 134.99022)" fill="none" stroke-linejoin="miter" d="M 192.158839 210.827268 L 275.492176 210.827268 " stroke="#000000" stroke-width="5" stroke-opacity="1" stroke-miterlimit="10"/><path stroke-linecap="round" transform="matrix(0.1875, 0, 0, 0.185088, 336.169438, 134.99022)" fill="none" stroke-linejoin="miter" d="M 191.492172 219.501374 L 259.825508 219.501374 " stroke="#000000" stroke-width="5" stroke-opacity="1" stroke-miterlimit="10"/><path stroke-linecap="round" transform="matrix(0.1875, 0, 0, 0.185088, 336.169438, 134.99022)" fill="none" stroke-linejoin="miter" d="M 191.492172 229.842764 L 272.158842 229.842764 " stroke="#000000" stroke-width="5" stroke-opacity="1" stroke-miterlimit="10"/></svg>