<svg xmlns="http://www.w3.org/2000/svg" xmlns:xlink="http://www.w3.org/1999/xlink" width="800" zoomAndPan="magnify" viewBox="0 0 600 225" height="300" preserveAspectRatio="xMidYMid meet" version="1.0"><defs><clipPath id="461b6cc8a1"><path d="M 83.828125 51 L 470 51 L 470 149 L 83.828125 149 Z M 83.828125 51 " clip-rule="nonzero"/></clipPath><clipPath id="7639960a96"><path d="M 454 38.445312 L 482 38.445312 L 482 66 L 454 66 Z M 454 38.445312 " clip-rule="nonzero"/></clipPath></defs><path fill="#ffffff" d="M 464.195312 147.800781 L 88.832031 147.800781 C 86.554688 147.800781 84.699219 145.945312 84.699219 143.667969 L 84.699219 56.386719 C 84.699219 54.109375 86.554688 52.253906 88.832031 52.253906 L 464.195312 52.253906 C 466.472656 52.253906 468.328125 54.109375 468.328125 56.386719 L 468.328125 143.667969 C 468.328125 145.945312 466.472656 147.800781 464.195312 147.800781 Z M 464.195312 147.800781 " fill-opacity="1" fill-rule="nonzero"/><g clip-path="url(#461b6cc8a1)"><path fill="#2b2b2b" d="M 464.195312 148.558594 L 88.832031 148.558594 C 86.132812 148.558594 83.859375 146.367188 83.859375 143.582031 L 83.859375 56.386719 C 83.859375 53.6875 86.050781 51.410156 88.832031 51.410156 L 464.195312 51.410156 C 466.894531 51.410156 469.167969 53.601562 469.167969 56.386719 L 469.167969 143.667969 C 469.085938 146.367188 466.894531 148.558594 464.195312 148.558594 Z M 88.832031 53.011719 C 86.976562 53.011719 85.460938 54.53125 85.460938 56.386719 L 85.460938 143.667969 C 85.460938 145.523438 86.976562 147.042969 88.832031 147.042969 L 464.195312 147.042969 C 466.050781 147.042969 467.566406 145.523438 467.566406 143.667969 L 467.566406 56.386719 C 467.566406 54.53125 466.050781 53.011719 464.195312 53.011719 Z M 88.832031 53.011719 " fill-opacity="1" fill-rule="nonzero"/></g><path fill="#000000" d="M 109.574219 68.359375 L 172.894531 68.359375 L 172.894531 131.691406 L 109.574219 131.691406 Z M 109.574219 68.359375 " fill-opacity="1" fill-rule="nonzero"/><path fill="#2b2b2b" d="M 414.957031 81.769531 L 200.042969 81.769531 C 199.621094 81.769531 199.28125 81.433594 199.28125 81.011719 C 199.28125 80.589844 199.621094 80.25 200.042969 80.25 L 414.957031 80.25 C 415.378906 80.25 415.714844 80.589844 415.714844 81.011719 C 415.714844 81.433594 415.378906 81.769531 414.957031 81.769531 Z M 414.957031 81.769531 " fill-opacity="1" fill-rule="nonzero"/><path fill="#2b2b2b" d="M 414.957031 100.742188 L 200.042969 100.742188 C 199.621094 100.742188 199.28125 100.40625 199.28125 99.984375 C 199.28125 99.5625 199.621094 99.226562 200.042969 99.226562 L 414.957031 99.226562 C 415.378906 99.226562 415.714844 99.5625 415.714844 99.984375 C 415.714844 100.40625 415.378906 100.742188 414.957031 100.742188 Z M 414.957031 100.742188 " fill-opacity="1" fill-rule="nonzero"/><path fill="#2b2b2b" d="M 414.957031 119.800781 L 200.042969 119.800781 C 199.621094 119.800781 199.28125 119.464844 199.28125 119.042969 C 199.28125 118.621094 199.621094 118.285156 200.042969 118.285156 L 414.957031 118.285156 C 415.378906 118.285156 415.714844 118.621094 415.714844 119.042969 C 415.714844 119.378906 415.378906 119.800781 414.957031 119.800781 Z M 414.957031 119.800781 " fill-opacity="1" fill-rule="nonzero"/><path fill="#ffffff" d="M 482.242188 114.21875 C 483.339844 114.675781 484.414062 115.183594 485.464844 115.742188 C 486.515625 116.304688 487.535156 116.917969 488.523438 117.578125 C 489.515625 118.238281 490.46875 118.949219 491.386719 119.703125 C 492.308594 120.457031 493.1875 121.257812 494.03125 122.097656 C 494.871094 122.941406 495.671875 123.820312 496.425781 124.742188 C 497.179688 125.660156 497.890625 126.617188 498.550781 127.605469 C 499.210938 128.59375 499.824219 129.617188 500.382812 130.664062 C 500.945312 131.714844 501.453125 132.789062 501.910156 133.890625 C 502.363281 134.988281 502.765625 136.109375 503.109375 137.246094 C 503.457031 138.386719 503.742188 139.539062 503.976562 140.707031 C 504.207031 141.875 504.382812 143.050781 504.5 144.234375 C 504.617188 145.421875 504.675781 146.609375 504.675781 147.796875 C 504.675781 148.988281 504.617188 150.175781 504.5 151.359375 C 504.382812 152.546875 504.207031 153.722656 503.976562 154.890625 C 503.742188 156.058594 503.457031 157.210938 503.109375 158.347656 C 502.765625 159.488281 502.363281 160.609375 501.910156 161.707031 C 501.453125 162.808594 500.945312 163.882812 500.382812 164.933594 C 499.824219 165.980469 499.210938 167 498.550781 167.992188 C 497.890625 168.980469 497.179688 169.9375 496.425781 170.855469 C 495.671875 171.777344 494.871094 172.65625 494.03125 173.5 C 493.1875 174.339844 492.308594 175.140625 491.386719 175.894531 C 490.46875 176.648438 489.515625 177.359375 488.523438 178.019531 C 487.535156 178.679688 486.515625 179.292969 485.464844 179.851562 C 484.414062 180.414062 483.339844 180.921875 482.242188 181.378906 C 481.140625 181.835938 480.023438 182.234375 478.882812 182.582031 C 477.746094 182.925781 476.59375 183.214844 475.425781 183.445312 C 474.257812 183.679688 473.082031 183.851562 471.898438 183.96875 C 470.710938 184.085938 469.527344 184.144531 468.335938 184.144531 C 467.144531 184.144531 465.957031 184.085938 464.773438 183.96875 C 463.589844 183.851562 462.414062 183.679688 461.246094 183.445312 C 460.078125 183.214844 458.925781 182.925781 457.785156 182.582031 C 456.648438 182.234375 455.527344 181.835938 454.429688 181.378906 C 453.328125 180.921875 452.253906 180.414062 451.207031 179.851562 C 450.15625 179.292969 449.136719 178.679688 448.148438 178.019531 C 447.15625 177.359375 446.203125 176.648438 445.28125 175.894531 C 444.363281 175.140625 443.480469 174.339844 442.640625 173.5 C 441.796875 172.65625 441 171.777344 440.246094 170.855469 C 439.488281 169.9375 438.78125 168.980469 438.121094 167.992188 C 437.460938 167 436.847656 165.980469 436.289062 164.933594 C 435.726562 163.882812 435.21875 162.808594 434.761719 161.707031 C 434.308594 160.609375 433.90625 159.488281 433.5625 158.347656 C 433.214844 157.210938 432.925781 156.058594 432.695312 154.890625 C 432.460938 153.722656 432.289062 152.546875 432.171875 151.359375 C 432.054688 150.175781 431.996094 148.988281 431.996094 147.796875 C 431.996094 146.609375 432.054688 145.421875 432.171875 144.234375 C 432.289062 143.050781 432.460938 141.875 432.695312 140.707031 C 432.925781 139.539062 433.214844 138.386719 433.5625 137.246094 C 433.90625 136.109375 434.308594 134.988281 434.761719 133.890625 C 435.21875 132.789062 435.726562 131.714844 436.289062 130.664062 C 436.847656 129.613281 437.460938 128.59375 438.121094 127.605469 C 438.78125 126.617188 439.488281 125.660156 440.246094 124.742188 C 441 123.820312 441.796875 122.941406 442.640625 122.097656 C 443.480469 121.257812 444.363281 120.457031 445.28125 119.703125 C 446.203125 118.945312 447.15625 118.238281 448.148438 117.578125 C 449.136719 116.917969 450.15625 116.304688 451.207031 115.742188 C 452.253906 115.183594 453.328125 114.675781 454.429688 114.21875 C 455.527344 113.761719 456.648438 113.363281 457.785156 113.015625 C 458.925781 112.671875 460.078125 112.382812 461.246094 112.152344 C 462.414062 111.917969 463.589844 111.742188 464.773438 111.628906 C 465.957031 111.511719 467.144531 111.453125 468.335938 111.453125 C 469.527344 111.453125 470.710938 111.511719 471.898438 111.628906 C 473.082031 111.742188 474.257812 111.917969 475.425781 112.152344 C 476.59375 112.382812 477.746094 112.671875 478.882812 113.015625 C 480.023438 113.363281 481.140625 113.761719 482.242188 114.21875 Z M 482.242188 114.21875 " fill-opacity="1" fill-rule="nonzero"/><path fill="#2b2b2b" d="M 468.328125 184.90625 C 447.839844 184.90625 431.226562 168.292969 431.226562 147.800781 C 431.226562 127.308594 447.839844 110.695312 468.328125 110.695312 C 488.8125 110.695312 505.425781 127.308594 505.425781 147.800781 C 505.425781 168.292969 488.8125 184.90625 468.328125 184.90625 Z M 468.328125 112.296875 C 448.765625 112.296875 432.832031 128.234375 432.832031 147.800781 C 432.832031 167.363281 448.765625 183.304688 468.328125 183.304688 C 487.886719 183.304688 503.820312 167.363281 503.820312 147.800781 C 503.820312 128.234375 487.886719 112.296875 468.328125 112.296875 Z M 468.328125 112.296875 " fill-opacity="1" fill-rule="nonzero"/><path fill="#000000" d="M 448.679688 154.125 C 449.101562 161.546875 457.703125 168.96875 469.339844 168.292969 L 481.816406 168.375 C 484.347656 168.375 485.777344 166.269531 485.777344 164.582031 C 485.777344 163.0625 485.019531 160.703125 481.730469 160.703125 C 484.851562 160.703125 487.042969 159.4375 487.042969 156.992188 C 487.042969 154.546875 484.515625 152.859375 481.730469 152.945312 C 484.851562 152.945312 488.140625 152.183594 488.140625 149.402344 C 488.140625 146.535156 485.019531 145.609375 481.730469 145.609375 C 484.597656 145.609375 487.296875 144.34375 487.296875 141.726562 C 487.296875 139.621094 486.03125 138.019531 481.902344 138.019531 L 470.433594 138.019531 C 472.289062 128.824219 473.46875 121.65625 467.652344 121.65625 C 461.835938 121.65625 467.230469 130.089844 461.582031 137.007812 C 459.558594 139.535156 457.617188 140.210938 455.511719 142.148438 C 453.402344 143.753906 448.34375 147.464844 448.679688 154.125 Z M 448.679688 154.125 " fill-opacity="1" fill-rule="nonzero"/><g clip-path="url(#7639960a96)"><path fill="#000000" d="M 477.789062 42.703125 C 478.410156 43.328125 478.964844 44.003906 479.457031 44.734375 C 479.945312 45.46875 480.359375 46.242188 480.695312 47.054688 C 481.03125 47.867188 481.285156 48.707031 481.457031 49.570312 C 481.628906 50.433594 481.714844 51.304688 481.714844 52.183594 C 481.714844 53.066406 481.628906 53.9375 481.457031 54.800781 C 481.285156 55.664062 481.03125 56.503906 480.695312 57.316406 C 480.359375 58.128906 479.945312 58.902344 479.457031 59.632812 C 478.96875 60.367188 478.410156 61.042969 477.789062 61.667969 C 477.167969 62.289062 476.488281 62.84375 475.757812 63.335938 C 475.027344 63.824219 474.253906 64.238281 473.441406 64.574219 C 472.625 64.910156 471.789062 65.164062 470.925781 65.335938 C 470.0625 65.507812 469.191406 65.59375 468.308594 65.59375 C 467.429688 65.59375 466.558594 65.507812 465.695312 65.335938 C 464.832031 65.164062 463.992188 64.910156 463.179688 64.574219 C 462.367188 64.238281 461.59375 63.824219 460.863281 63.335938 C 460.128906 62.84375 459.453125 62.289062 458.832031 61.667969 C 458.207031 61.042969 457.652344 60.367188 457.164062 59.636719 C 456.671875 58.902344 456.261719 58.128906 455.925781 57.316406 C 455.585938 56.503906 455.332031 55.664062 455.160156 54.800781 C 454.988281 53.9375 454.902344 53.066406 454.902344 52.1875 C 454.902344 51.304688 454.988281 50.433594 455.160156 49.570312 C 455.332031 48.707031 455.585938 47.867188 455.921875 47.054688 C 456.261719 46.242188 456.671875 45.46875 457.164062 44.734375 C 457.652344 44.003906 458.207031 43.328125 458.828125 42.703125 C 459.453125 42.082031 460.128906 41.527344 460.859375 41.035156 C 461.59375 40.546875 462.367188 40.132812 463.179688 39.796875 C 463.992188 39.460938 464.832031 39.207031 465.695312 39.035156 C 466.558594 38.863281 467.429688 38.777344 468.308594 38.777344 C 469.1875 38.777344 470.0625 38.863281 470.925781 39.035156 C 471.789062 39.207031 472.625 39.460938 473.4375 39.796875 C 474.253906 40.132812 475.023438 40.546875 475.757812 41.035156 C 476.488281 41.527344 477.164062 42.082031 477.789062 42.703125 Z M 477.789062 42.703125 " fill-opacity="1" fill-rule="nonzero"/></g><path fill="#ffffff" d="M 464.109375 57.230469 C 463.941406 57.230469 463.6875 57.144531 463.519531 56.976562 C 463.183594 56.640625 463.183594 56.21875 463.519531 55.878906 L 472.035156 47.363281 C 472.375 47.023438 472.792969 47.023438 473.132812 47.363281 C 473.46875 47.699219 473.46875 48.121094 473.132812 48.457031 L 464.617188 56.976562 C 464.449219 57.144531 464.277344 57.230469 464.109375 57.230469 Z M 464.109375 57.230469 " fill-opacity="1" fill-rule="nonzero"/><path fill="#ffffff" d="M 472.625 57.230469 C 472.457031 57.230469 472.203125 57.144531 472.035156 56.976562 L 463.519531 48.457031 C 463.183594 48.121094 463.183594 47.699219 463.519531 47.363281 C 463.859375 47.023438 464.277344 47.023438 464.617188 47.363281 L 473.132812 55.878906 C 473.46875 56.21875 473.46875 56.640625 473.132812 56.976562 C 472.964844 57.144531 472.792969 57.230469 472.625 57.230469 Z M 472.625 57.230469 " fill-opacity="1" fill-rule="nonzero"/></svg>