<svg xmlns="http://www.w3.org/2000/svg" xmlns:xlink="http://www.w3.org/1999/xlink" width="800" zoomAndPan="magnify" viewBox="0 0 600 225" height="300" preserveAspectRatio="xMidYMid meet" version="1.0"><defs><g/><clipPath id="ce51748e70"><path d="M 171.226562 40.0625 L 429 40.0625 L 429 75 L 171.226562 75 Z M 171.226562 40.0625 " clip-rule="nonzero"/></clipPath><clipPath id="b9adeea5c0"><path d="M 171.226562 76 L 299 76 L 299 112 L 171.226562 112 Z M 171.226562 76 " clip-rule="nonzero"/></clipPath><clipPath id="0f868cdd33"><path d="M 171.226562 113 L 299 113 L 299 149 L 171.226562 149 Z M 171.226562 113 " clip-rule="nonzero"/></clipPath><clipPath id="48475a274b"><path d="M 171.226562 150 L 299 150 L 299 185 L 171.226562 185 Z M 171.226562 150 " clip-rule="nonzero"/></clipPath></defs><g clip-path="url(#ce51748e70)"><path fill="#0a0b18" d="M 171.226562 40.0625 L 171.226562 74.472656 L 298.792969 74.472656 L 298.792969 40.0625 Z M 301.207031 40.0625 L 301.207031 74.472656 L 428.773438 74.472656 L 428.773438 40.0625 Z M 301.207031 40.0625 " fill-opacity="1" fill-rule="nonzero"/></g><g clip-path="url(#b9adeea5c0)"><path fill="#818bf2" d="M 171.226562 76.886719 L 171.226562 111.292969 L 298.792969 111.292969 L 298.792969 76.886719 Z M 171.226562 76.886719 " fill-opacity="1" fill-rule="nonzero"/></g><path fill="#dfe2fc" d="M 301.207031 76.886719 L 301.207031 111.292969 L 428.773438 111.292969 L 428.773438 76.886719 Z M 301.207031 76.886719 " fill-opacity="1" fill-rule="nonzero"/><g clip-path="url(#0f868cdd33)"><path fill="#7ed957" d="M 171.226562 113.707031 L 171.226562 148.113281 L 298.792969 148.113281 L 298.792969 113.707031 Z M 171.226562 113.707031 " fill-opacity="1" fill-rule="nonzero"/></g><path fill="#d8ffc7" d="M 301.207031 113.707031 L 301.207031 148.113281 L 428.773438 148.113281 L 428.773438 113.707031 Z M 301.207031 113.707031 " fill-opacity="1" fill-rule="nonzero"/><g clip-path="url(#48475a274b)"><path fill="#ffde59" d="M 171.226562 150.527344 L 171.226562 184.9375 L 298.792969 184.9375 L 298.792969 150.527344 Z M 171.226562 150.527344 " fill-opacity="1" fill-rule="nonzero"/></g><path fill="#fff4ca" d="M 301.207031 150.527344 L 301.207031 184.9375 L 428.773438 184.9375 L 428.773438 150.527344 Z M 301.207031 150.527344 " fill-opacity="1" fill-rule="nonzero"/><g fill="#ffffff" fill-opacity="1"><g transform="translate(215.511721, 61.630607)"><g><path d="M 7.546875 -7.71875 L 4.734375 -7.71875 L 4.734375 0 L 2.953125 0 L 2.953125 -7.71875 L 0.171875 -7.71875 L 0.171875 -9.15625 L 7.546875 -9.15625 Z M 7.546875 -7.71875 "/></g></g><g transform="translate(223.239441, 61.630607)"><g><path d="M 7.203125 -3.90625 C 7.203125 -3.320312 7.125 -2.78125 6.96875 -2.28125 C 6.820312 -1.789062 6.597656 -1.363281 6.296875 -1 C 6.003906 -0.644531 5.648438 -0.367188 5.234375 -0.171875 C 4.816406 0.0234375 4.34375 0.125 3.8125 0.125 C 3.28125 0.125 2.804688 0.0234375 2.390625 -0.171875 C 1.984375 -0.367188 1.640625 -0.644531 1.359375 -1 C 1.078125 -1.363281 0.863281 -1.789062 0.71875 -2.28125 C 0.570312 -2.78125 0.5 -3.320312 0.5 -3.90625 L 0.5 -5.234375 C 0.5 -5.816406 0.570312 -6.351562 0.71875 -6.84375 C 0.863281 -7.34375 1.078125 -7.769531 1.359375 -8.125 C 1.640625 -8.488281 1.984375 -8.769531 2.390625 -8.96875 C 2.804688 -9.175781 3.273438 -9.28125 3.796875 -9.28125 C 4.335938 -9.28125 4.816406 -9.175781 5.234375 -8.96875 C 5.648438 -8.769531 6.003906 -8.488281 6.296875 -8.125 C 6.597656 -7.769531 6.820312 -7.34375 6.96875 -6.84375 C 7.125 -6.351562 7.203125 -5.816406 7.203125 -5.234375 Z M 5.421875 -5.25 C 5.421875 -5.625 5.390625 -5.96875 5.328125 -6.28125 C 5.265625 -6.59375 5.164062 -6.863281 5.03125 -7.09375 C 4.90625 -7.320312 4.738281 -7.5 4.53125 -7.625 C 4.332031 -7.75 4.085938 -7.8125 3.796875 -7.8125 C 3.515625 -7.8125 3.273438 -7.75 3.078125 -7.625 C 2.890625 -7.5 2.738281 -7.320312 2.625 -7.09375 C 2.507812 -6.863281 2.425781 -6.59375 2.375 -6.28125 C 2.320312 -5.96875 2.296875 -5.625 2.296875 -5.25 L 2.296875 -3.90625 C 2.296875 -3.53125 2.320312 -3.1875 2.375 -2.875 C 2.425781 -2.5625 2.507812 -2.289062 2.625 -2.0625 C 2.738281 -1.832031 2.890625 -1.648438 3.078125 -1.515625 C 3.273438 -1.390625 3.519531 -1.328125 3.8125 -1.328125 C 4.09375 -1.328125 4.332031 -1.390625 4.53125 -1.515625 C 4.738281 -1.648438 4.90625 -1.832031 5.03125 -2.0625 C 5.164062 -2.289062 5.265625 -2.5625 5.328125 -2.875 C 5.390625 -3.1875 5.421875 -3.53125 5.421875 -3.90625 Z M 5.421875 -5.25 "/></g></g><g transform="translate(230.967161, 61.630607)"><g><path d="M 2.703125 -3.359375 L 2.703125 0 L 0.9375 0 L 0.9375 -9.15625 L 4.0625 -9.15625 C 4.5625 -9.15625 5.007812 -9.082031 5.40625 -8.9375 C 5.8125 -8.789062 6.15625 -8.585938 6.4375 -8.328125 C 6.726562 -8.078125 6.945312 -7.769531 7.09375 -7.40625 C 7.25 -7.039062 7.328125 -6.640625 7.328125 -6.203125 C 7.328125 -5.796875 7.25 -5.414062 7.09375 -5.0625 C 6.945312 -4.71875 6.726562 -4.414062 6.4375 -4.15625 C 6.15625 -3.90625 5.8125 -3.707031 5.40625 -3.5625 C 5.007812 -3.425781 4.5625 -3.359375 4.0625 -3.359375 Z M 2.703125 -4.796875 L 4.0625 -4.796875 C 4.3125 -4.796875 4.53125 -4.832031 4.71875 -4.90625 C 4.90625 -4.976562 5.0625 -5.078125 5.1875 -5.203125 C 5.3125 -5.335938 5.398438 -5.488281 5.453125 -5.65625 C 5.515625 -5.832031 5.546875 -6.007812 5.546875 -6.1875 C 5.546875 -6.40625 5.515625 -6.601562 5.453125 -6.78125 C 5.398438 -6.96875 5.3125 -7.128906 5.1875 -7.265625 C 5.0625 -7.410156 4.90625 -7.519531 4.71875 -7.59375 C 4.53125 -7.675781 4.3125 -7.71875 4.0625 -7.71875 L 2.703125 -7.71875 Z M 2.703125 -4.796875 "/></g></g><g transform="translate(238.694881, 61.630607)"><g><path d="M 1.21875 -9.15625 L 6.5 -9.15625 L 6.5 -7.71875 L 4.71875 -7.71875 L 4.71875 -1.421875 L 6.5 -1.421875 L 6.5 0 L 1.21875 0 L 1.21875 -1.421875 L 2.953125 -1.421875 L 2.953125 -7.71875 L 1.21875 -7.71875 Z M 1.21875 -9.15625 "/></g></g><g transform="translate(246.422601, 61.630607)"><g><path d="M 7.171875 -2.859375 C 7.148438 -2.398438 7.050781 -1.984375 6.875 -1.609375 C 6.707031 -1.242188 6.476562 -0.929688 6.1875 -0.671875 C 5.90625 -0.421875 5.566406 -0.222656 5.171875 -0.078125 C 4.785156 0.0546875 4.351562 0.125 3.875 0.125 C 3.332031 0.125 2.847656 0.0234375 2.421875 -0.171875 C 2.003906 -0.367188 1.65625 -0.644531 1.375 -1 C 1.09375 -1.363281 0.875 -1.796875 0.71875 -2.296875 C 0.570312 -2.796875 0.5 -3.347656 0.5 -3.953125 L 0.5 -5.1875 C 0.5 -5.789062 0.578125 -6.34375 0.734375 -6.84375 C 0.890625 -7.351562 1.113281 -7.785156 1.40625 -8.140625 C 1.707031 -8.503906 2.066406 -8.785156 2.484375 -8.984375 C 2.898438 -9.179688 3.367188 -9.28125 3.890625 -9.28125 C 4.390625 -9.28125 4.832031 -9.207031 5.21875 -9.0625 C 5.613281 -8.925781 5.945312 -8.722656 6.21875 -8.453125 C 6.5 -8.191406 6.71875 -7.867188 6.875 -7.484375 C 7.039062 -7.109375 7.144531 -6.679688 7.1875 -6.203125 L 5.421875 -6.203125 C 5.410156 -6.472656 5.367188 -6.710938 5.296875 -6.921875 C 5.234375 -7.128906 5.140625 -7.300781 5.015625 -7.4375 C 4.890625 -7.570312 4.734375 -7.671875 4.546875 -7.734375 C 4.367188 -7.804688 4.148438 -7.84375 3.890625 -7.84375 C 3.609375 -7.84375 3.367188 -7.785156 3.171875 -7.671875 C 2.972656 -7.554688 2.804688 -7.382812 2.671875 -7.15625 C 2.546875 -6.925781 2.445312 -6.644531 2.375 -6.3125 C 2.3125 -5.988281 2.28125 -5.617188 2.28125 -5.203125 L 2.28125 -3.953125 C 2.28125 -3.054688 2.40625 -2.390625 2.65625 -1.953125 C 2.914062 -1.523438 3.320312 -1.3125 3.875 -1.3125 C 4.332031 -1.3125 4.695312 -1.429688 4.96875 -1.671875 C 5.238281 -1.921875 5.382812 -2.316406 5.40625 -2.859375 Z M 7.171875 -2.859375 "/></g></g></g><g fill="#ffffff" fill-opacity="1"><g transform="translate(341.636842, 61.630607)"><g><path d="M 5.296875 -3.640625 L 5.96875 -9.15625 L 7.59375 -9.15625 L 6.3125 0 L 4.71875 0 L 3.859375 -5.40625 L 3.015625 0 L 1.421875 0 L 0.15625 -9.15625 L 1.78125 -9.15625 L 2.4375 -3.671875 L 3.21875 -9.15625 L 4.46875 -9.15625 Z M 5.296875 -3.640625 "/></g></g><g transform="translate(349.364562, 61.630607)"><g><path d="M 6.453125 -4.015625 L 2.703125 -4.015625 L 2.703125 -1.421875 L 7.09375 -1.421875 L 7.09375 0 L 0.921875 0 L 0.921875 -9.15625 L 7.078125 -9.15625 L 7.078125 -7.71875 L 2.703125 -7.71875 L 2.703125 -5.40625 L 6.453125 -5.40625 Z M 6.453125 -4.015625 "/></g></g><g transform="translate(357.092282, 61.630607)"><g><path d="M 1.21875 -9.15625 L 6.5 -9.15625 L 6.5 -7.71875 L 4.71875 -7.71875 L 4.71875 -1.421875 L 6.5 -1.421875 L 6.5 0 L 1.21875 0 L 1.21875 -1.421875 L 2.953125 -1.421875 L 2.953125 -7.71875 L 1.21875 -7.71875 Z M 1.21875 -9.15625 "/></g></g><g transform="translate(364.820002, 61.630607)"><g><path d="M 7.109375 -1.0625 C 7.003906 -0.925781 6.851562 -0.785156 6.65625 -0.640625 C 6.457031 -0.503906 6.222656 -0.378906 5.953125 -0.265625 C 5.679688 -0.148438 5.375 -0.0546875 5.03125 0.015625 C 4.695312 0.0859375 4.335938 0.125 3.953125 0.125 C 3.441406 0.125 2.972656 0.0351562 2.546875 -0.140625 C 2.128906 -0.328125 1.769531 -0.59375 1.46875 -0.9375 C 1.175781 -1.289062 0.945312 -1.71875 0.78125 -2.21875 C 0.625 -2.726562 0.546875 -3.304688 0.546875 -3.953125 L 0.546875 -5.1875 C 0.546875 -5.832031 0.628906 -6.40625 0.796875 -6.90625 C 0.972656 -7.414062 1.207031 -7.84375 1.5 -8.1875 C 1.800781 -8.539062 2.15625 -8.8125 2.5625 -9 C 2.96875 -9.1875 3.40625 -9.28125 3.875 -9.28125 C 4.394531 -9.28125 4.84375 -9.210938 5.21875 -9.078125 C 5.601562 -8.953125 5.925781 -8.765625 6.1875 -8.515625 C 6.457031 -8.273438 6.664062 -7.976562 6.8125 -7.625 C 6.96875 -7.269531 7.066406 -6.875 7.109375 -6.4375 L 5.390625 -6.4375 C 5.328125 -6.90625 5.179688 -7.257812 4.953125 -7.5 C 4.734375 -7.738281 4.390625 -7.859375 3.921875 -7.859375 C 3.691406 -7.859375 3.476562 -7.796875 3.28125 -7.671875 C 3.09375 -7.554688 2.925781 -7.390625 2.78125 -7.171875 C 2.644531 -6.953125 2.535156 -6.675781 2.453125 -6.34375 C 2.367188 -6.019531 2.328125 -5.640625 2.328125 -5.203125 L 2.328125 -3.953125 C 2.328125 -3.097656 2.46875 -2.441406 2.75 -1.984375 C 3.03125 -1.523438 3.460938 -1.296875 4.046875 -1.296875 C 4.179688 -1.296875 4.316406 -1.304688 4.453125 -1.328125 C 4.585938 -1.347656 4.710938 -1.375 4.828125 -1.40625 C 4.941406 -1.445312 5.046875 -1.488281 5.140625 -1.53125 C 5.234375 -1.582031 5.300781 -1.640625 5.34375 -1.703125 L 5.34375 -3.359375 L 3.828125 -3.359375 L 3.828125 -4.671875 L 7.109375 -4.671875 Z M 7.109375 -1.0625 "/></g></g><g transform="translate(372.547722, 61.630607)"><g><path d="M 6.859375 0 L 5.125 0 L 5.125 -3.96875 L 2.53125 -3.96875 L 2.53125 0 L 0.765625 0 L 0.765625 -9.15625 L 2.53125 -9.15625 L 2.53125 -5.40625 L 5.125 -5.40625 L 5.125 -9.15625 L 6.859375 -9.15625 Z M 6.859375 0 "/></g></g><g transform="translate(380.275442, 61.630607)"><g><path d="M 7.546875 -7.71875 L 4.734375 -7.71875 L 4.734375 0 L 2.953125 0 L 2.953125 -7.71875 L 0.171875 -7.71875 L 0.171875 -9.15625 L 7.546875 -9.15625 Z M 7.546875 -7.71875 "/></g></g></g><g fill="#000000" fill-opacity="1"><g transform="translate(227.114829, 98.451972)"><g><path d="M 4.859375 0 L 3.703125 0 L 3.703125 -7.671875 L 1.3125 -6.765625 L 1.3125 -7.828125 L 4.765625 -9.15625 L 4.859375 -9.15625 Z M 4.859375 0 "/></g></g><g transform="translate(234.842549, 98.451972)"><g><path d="M 6.84375 -3.5 C 6.84375 -2.914062 6.773438 -2.398438 6.640625 -1.953125 C 6.503906 -1.503906 6.3125 -1.125 6.0625 -0.8125 C 5.8125 -0.507812 5.503906 -0.273438 5.140625 -0.109375 C 4.773438 0.046875 4.359375 0.125 3.890625 0.125 C 3.421875 0.125 3.003906 0.046875 2.640625 -0.109375 C 2.273438 -0.273438 1.960938 -0.507812 1.703125 -0.8125 C 1.441406 -1.125 1.242188 -1.503906 1.109375 -1.953125 C 0.972656 -2.398438 0.90625 -2.914062 0.90625 -3.5 L 0.90625 -5.640625 C 0.90625 -6.222656 0.972656 -6.738281 1.109375 -7.1875 C 1.242188 -7.644531 1.4375 -8.023438 1.6875 -8.328125 C 1.945312 -8.640625 2.257812 -8.875 2.625 -9.03125 C 2.988281 -9.195312 3.40625 -9.28125 3.875 -9.28125 C 4.34375 -9.28125 4.757812 -9.195312 5.125 -9.03125 C 5.488281 -8.875 5.796875 -8.640625 6.046875 -8.328125 C 6.304688 -8.023438 6.503906 -7.644531 6.640625 -7.1875 C 6.773438 -6.738281 6.84375 -6.222656 6.84375 -5.640625 Z M 2.078125 -3.734375 L 5.640625 -6.46875 C 5.578125 -7.070312 5.398438 -7.53125 5.109375 -7.84375 C 4.828125 -8.164062 4.414062 -8.328125 3.875 -8.328125 C 3.257812 -8.328125 2.804688 -8.117188 2.515625 -7.703125 C 2.222656 -7.296875 2.078125 -6.695312 2.078125 -5.90625 Z M 5.671875 -5.359375 L 2.109375 -2.640625 C 2.179688 -2.046875 2.363281 -1.59375 2.65625 -1.28125 C 2.945312 -0.96875 3.359375 -0.8125 3.890625 -0.8125 C 4.503906 -0.8125 4.953125 -1.019531 5.234375 -1.4375 C 5.523438 -1.863281 5.671875 -2.46875 5.671875 -3.25 Z M 5.671875 -5.359375 "/></g></g></g><g fill="#000000" fill-opacity="1"><g transform="translate(357.096474, 98.451972)"><g><path d="M 2.453125 -5.140625 L 3.28125 -5.140625 C 3.570312 -5.140625 3.828125 -5.175781 4.046875 -5.25 C 4.273438 -5.332031 4.46875 -5.441406 4.625 -5.578125 C 4.78125 -5.722656 4.894531 -5.890625 4.96875 -6.078125 C 5.050781 -6.273438 5.09375 -6.488281 5.09375 -6.71875 C 5.09375 -7.25 4.957031 -7.648438 4.6875 -7.921875 C 4.414062 -8.191406 4.015625 -8.328125 3.484375 -8.328125 C 3.242188 -8.328125 3.019531 -8.289062 2.8125 -8.21875 C 2.613281 -8.144531 2.441406 -8.035156 2.296875 -7.890625 C 2.148438 -7.753906 2.035156 -7.585938 1.953125 -7.390625 C 1.867188 -7.203125 1.828125 -6.988281 1.828125 -6.75 L 0.671875 -6.75 C 0.671875 -7.101562 0.738281 -7.429688 0.875 -7.734375 C 1.007812 -8.046875 1.195312 -8.316406 1.4375 -8.546875 C 1.6875 -8.773438 1.984375 -8.953125 2.328125 -9.078125 C 2.679688 -9.210938 3.066406 -9.28125 3.484375 -9.28125 C 3.898438 -9.28125 4.273438 -9.222656 4.609375 -9.109375 C 4.953125 -9.003906 5.242188 -8.84375 5.484375 -8.625 C 5.734375 -8.40625 5.921875 -8.132812 6.046875 -7.8125 C 6.179688 -7.488281 6.25 -7.113281 6.25 -6.6875 C 6.25 -6.507812 6.222656 -6.328125 6.171875 -6.140625 C 6.117188 -5.953125 6.035156 -5.769531 5.921875 -5.59375 C 5.804688 -5.414062 5.660156 -5.25 5.484375 -5.09375 C 5.304688 -4.9375 5.09375 -4.804688 4.84375 -4.703125 C 5.144531 -4.597656 5.394531 -4.46875 5.59375 -4.3125 C 5.789062 -4.164062 5.945312 -3.992188 6.0625 -3.796875 C 6.1875 -3.609375 6.269531 -3.40625 6.3125 -3.1875 C 6.363281 -2.96875 6.390625 -2.753906 6.390625 -2.546875 C 6.390625 -2.117188 6.316406 -1.738281 6.171875 -1.40625 C 6.023438 -1.082031 5.820312 -0.804688 5.5625 -0.578125 C 5.300781 -0.347656 4.992188 -0.171875 4.640625 -0.046875 C 4.285156 0.0664062 3.90625 0.125 3.5 0.125 C 3.09375 0.125 2.710938 0.0664062 2.359375 -0.046875 C 2.003906 -0.160156 1.695312 -0.328125 1.4375 -0.546875 C 1.175781 -0.765625 0.96875 -1.03125 0.8125 -1.34375 C 0.664062 -1.65625 0.59375 -2.015625 0.59375 -2.421875 L 1.75 -2.421875 C 1.75 -2.179688 1.789062 -1.960938 1.875 -1.765625 C 1.957031 -1.566406 2.070312 -1.394531 2.21875 -1.25 C 2.375 -1.113281 2.554688 -1.007812 2.765625 -0.9375 C 2.984375 -0.863281 3.226562 -0.828125 3.5 -0.828125 C 3.757812 -0.828125 3.992188 -0.859375 4.203125 -0.921875 C 4.421875 -0.992188 4.601562 -1.097656 4.75 -1.234375 C 4.90625 -1.378906 5.023438 -1.554688 5.109375 -1.765625 C 5.191406 -1.984375 5.234375 -2.238281 5.234375 -2.53125 C 5.234375 -2.8125 5.1875 -3.054688 5.09375 -3.265625 C 5 -3.472656 4.863281 -3.644531 4.6875 -3.78125 C 4.519531 -3.914062 4.316406 -4.015625 4.078125 -4.078125 C 3.835938 -4.148438 3.570312 -4.1875 3.28125 -4.1875 L 2.453125 -4.1875 Z M 2.453125 -5.140625 "/></g></g><g transform="translate(364.824194, 98.451972)"><g><path d="M 0.28125 -7.5 C 0.28125 -7.738281 0.316406 -7.96875 0.390625 -8.1875 C 0.460938 -8.40625 0.566406 -8.59375 0.703125 -8.75 C 0.847656 -8.914062 1.023438 -9.046875 1.234375 -9.140625 C 1.441406 -9.234375 1.679688 -9.28125 1.953125 -9.28125 C 2.234375 -9.28125 2.476562 -9.234375 2.6875 -9.140625 C 2.894531 -9.046875 3.066406 -8.914062 3.203125 -8.75 C 3.347656 -8.59375 3.457031 -8.40625 3.53125 -8.1875 C 3.601562 -7.96875 3.640625 -7.738281 3.640625 -7.5 L 3.640625 -7.015625 C 3.640625 -6.773438 3.601562 -6.546875 3.53125 -6.328125 C 3.457031 -6.117188 3.347656 -5.929688 3.203125 -5.765625 C 3.066406 -5.609375 2.894531 -5.484375 2.6875 -5.390625 C 2.476562 -5.296875 2.238281 -5.25 1.96875 -5.25 C 1.695312 -5.25 1.453125 -5.296875 1.234375 -5.390625 C 1.023438 -5.484375 0.847656 -5.609375 0.703125 -5.765625 C 0.566406 -5.929688 0.460938 -6.117188 0.390625 -6.328125 C 0.316406 -6.546875 0.28125 -6.773438 0.28125 -7.015625 Z M 1.140625 -7.015625 C 1.140625 -6.890625 1.15625 -6.765625 1.1875 -6.640625 C 1.21875 -6.523438 1.265625 -6.421875 1.328125 -6.328125 C 1.398438 -6.234375 1.484375 -6.15625 1.578125 -6.09375 C 1.679688 -6.039062 1.8125 -6.015625 1.96875 -6.015625 C 2.113281 -6.015625 2.238281 -6.039062 2.34375 -6.09375 C 2.445312 -6.15625 2.53125 -6.234375 2.59375 -6.328125 C 2.65625 -6.421875 2.703125 -6.523438 2.734375 -6.640625 C 2.765625 -6.765625 2.78125 -6.890625 2.78125 -7.015625 L 2.78125 -7.5 C 2.78125 -7.632812 2.765625 -7.765625 2.734375 -7.890625 C 2.703125 -8.015625 2.648438 -8.125 2.578125 -8.21875 C 2.515625 -8.3125 2.429688 -8.382812 2.328125 -8.4375 C 2.234375 -8.5 2.109375 -8.53125 1.953125 -8.53125 C 1.804688 -8.53125 1.679688 -8.5 1.578125 -8.4375 C 1.472656 -8.382812 1.390625 -8.3125 1.328125 -8.21875 C 1.265625 -8.125 1.21875 -8.015625 1.1875 -7.890625 C 1.15625 -7.765625 1.140625 -7.632812 1.140625 -7.5 Z M 4.0625 -2.125 C 4.0625 -2.363281 4.097656 -2.585938 4.171875 -2.796875 C 4.242188 -3.015625 4.347656 -3.203125 4.484375 -3.359375 C 4.628906 -3.523438 4.804688 -3.65625 5.015625 -3.75 C 5.222656 -3.84375 5.460938 -3.890625 5.734375 -3.890625 C 6.015625 -3.890625 6.257812 -3.84375 6.46875 -3.75 C 6.675781 -3.65625 6.847656 -3.523438 6.984375 -3.359375 C 7.128906 -3.203125 7.238281 -3.015625 7.3125 -2.796875 C 7.394531 -2.585938 7.4375 -2.363281 7.4375 -2.125 L 7.4375 -1.640625 C 7.4375 -1.398438 7.394531 -1.171875 7.3125 -0.953125 C 7.238281 -0.742188 7.128906 -0.554688 6.984375 -0.390625 C 6.847656 -0.234375 6.675781 -0.109375 6.46875 -0.015625 C 6.257812 0.078125 6.019531 0.125 5.75 0.125 C 5.476562 0.125 5.234375 0.078125 5.015625 -0.015625 C 4.804688 -0.109375 4.628906 -0.234375 4.484375 -0.390625 C 4.347656 -0.554688 4.242188 -0.742188 4.171875 -0.953125 C 4.097656 -1.171875 4.0625 -1.398438 4.0625 -1.640625 Z M 4.921875 -1.640625 C 4.921875 -1.503906 4.9375 -1.375 4.96875 -1.25 C 5 -1.132812 5.046875 -1.03125 5.109375 -0.9375 C 5.179688 -0.84375 5.269531 -0.765625 5.375 -0.703125 C 5.476562 -0.648438 5.601562 -0.625 5.75 -0.625 C 5.894531 -0.625 6.019531 -0.648438 6.125 -0.703125 C 6.226562 -0.765625 6.3125 -0.84375 6.375 -0.9375 C 6.4375 -1.03125 6.484375 -1.132812 6.515625 -1.25 C 6.546875 -1.375 6.5625 -1.503906 6.5625 -1.640625 L 6.5625 -2.125 C 6.5625 -2.25 6.546875 -2.375 6.515625 -2.5 C 6.484375 -2.625 6.4375 -2.734375 6.375 -2.828125 C 6.3125 -2.921875 6.222656 -2.992188 6.109375 -3.046875 C 6.003906 -3.109375 5.878906 -3.140625 5.734375 -3.140625 C 5.585938 -3.140625 5.460938 -3.109375 5.359375 -3.046875 C 5.253906 -2.992188 5.171875 -2.921875 5.109375 -2.828125 C 5.046875 -2.734375 5 -2.625 4.96875 -2.5 C 4.9375 -2.375 4.921875 -2.25 4.921875 -2.125 Z M 2.5 -1.1875 L 1.796875 -1.578125 L 5.375 -8.09375 L 6.0625 -7.703125 Z M 2.5 -1.1875 "/></g></g></g><g fill="#000000" fill-opacity="1"><g transform="translate(230.971353, 135.273457)"><g><path d="M 5.8125 -3.078125 L 7.078125 -3.078125 L 7.078125 -2.125 L 5.8125 -2.125 L 5.8125 0 L 4.640625 0 L 4.640625 -2.125 L 0.46875 -2.125 L 0.46875 -2.8125 L 4.578125 -9.15625 L 5.8125 -9.15625 Z M 1.765625 -3.078125 L 4.640625 -3.078125 L 4.640625 -7.609375 L 4.453125 -7.25 Z M 1.765625 -3.078125 "/></g></g></g><g fill="#000000" fill-opacity="1"><g transform="translate(357.096474, 135.273457)"><g><path d="M 4.859375 0 L 3.703125 0 L 3.703125 -7.671875 L 1.3125 -6.765625 L 1.3125 -7.828125 L 4.765625 -9.15625 L 4.859375 -9.15625 Z M 4.859375 0 "/></g></g><g transform="translate(364.824194, 135.273457)"><g><path d="M 0.28125 -7.5 C 0.28125 -7.738281 0.316406 -7.96875 0.390625 -8.1875 C 0.460938 -8.40625 0.566406 -8.59375 0.703125 -8.75 C 0.847656 -8.914062 1.023438 -9.046875 1.234375 -9.140625 C 1.441406 -9.234375 1.679688 -9.28125 1.953125 -9.28125 C 2.234375 -9.28125 2.476562 -9.234375 2.6875 -9.140625 C 2.894531 -9.046875 3.066406 -8.914062 3.203125 -8.75 C 3.347656 -8.59375 3.457031 -8.40625 3.53125 -8.1875 C 3.601562 -7.96875 3.640625 -7.738281 3.640625 -7.5 L 3.640625 -7.015625 C 3.640625 -6.773438 3.601562 -6.546875 3.53125 -6.328125 C 3.457031 -6.117188 3.347656 -5.929688 3.203125 -5.765625 C 3.066406 -5.609375 2.894531 -5.484375 2.6875 -5.390625 C 2.476562 -5.296875 2.238281 -5.25 1.96875 -5.25 C 1.695312 -5.25 1.453125 -5.296875 1.234375 -5.390625 C 1.023438 -5.484375 0.847656 -5.609375 0.703125 -5.765625 C 0.566406 -5.929688 0.460938 -6.117188 0.390625 -6.328125 C 0.316406 -6.546875 0.28125 -6.773438 0.28125 -7.015625 Z M 1.140625 -7.015625 C 1.140625 -6.890625 1.15625 -6.765625 1.1875 -6.640625 C 1.21875 -6.523438 1.265625 -6.421875 1.328125 -6.328125 C 1.398438 -6.234375 1.484375 -6.15625 1.578125 -6.09375 C 1.679688 -6.039062 1.8125 -6.015625 1.96875 -6.015625 C 2.113281 -6.015625 2.238281 -6.039062 2.34375 -6.09375 C 2.445312 -6.15625 2.53125 -6.234375 2.59375 -6.328125 C 2.65625 -6.421875 2.703125 -6.523438 2.734375 -6.640625 C 2.765625 -6.765625 2.78125 -6.890625 2.78125 -7.015625 L 2.78125 -7.5 C 2.78125 -7.632812 2.765625 -7.765625 2.734375 -7.890625 C 2.703125 -8.015625 2.648438 -8.125 2.578125 -8.21875 C 2.515625 -8.3125 2.429688 -8.382812 2.328125 -8.4375 C 2.234375 -8.5 2.109375 -8.53125 1.953125 -8.53125 C 1.804688 -8.53125 1.679688 -8.5 1.578125 -8.4375 C 1.472656 -8.382812 1.390625 -8.3125 1.328125 -8.21875 C 1.265625 -8.125 1.21875 -8.015625 1.1875 -7.890625 C 1.15625 -7.765625 1.140625 -7.632812 1.140625 -7.5 Z M 4.0625 -2.125 C 4.0625 -2.363281 4.097656 -2.585938 4.171875 -2.796875 C 4.242188 -3.015625 4.347656 -3.203125 4.484375 -3.359375 C 4.628906 -3.523438 4.804688 -3.65625 5.015625 -3.75 C 5.222656 -3.84375 5.460938 -3.890625 5.734375 -3.890625 C 6.015625 -3.890625 6.257812 -3.84375 6.46875 -3.75 C 6.675781 -3.65625 6.847656 -3.523438 6.984375 -3.359375 C 7.128906 -3.203125 7.238281 -3.015625 7.3125 -2.796875 C 7.394531 -2.585938 7.4375 -2.363281 7.4375 -2.125 L 7.4375 -1.640625 C 7.4375 -1.398438 7.394531 -1.171875 7.3125 -0.953125 C 7.238281 -0.742188 7.128906 -0.554688 6.984375 -0.390625 C 6.847656 -0.234375 6.675781 -0.109375 6.46875 -0.015625 C 6.257812 0.078125 6.019531 0.125 5.75 0.125 C 5.476562 0.125 5.234375 0.078125 5.015625 -0.015625 C 4.804688 -0.109375 4.628906 -0.234375 4.484375 -0.390625 C 4.347656 -0.554688 4.242188 -0.742188 4.171875 -0.953125 C 4.097656 -1.171875 4.0625 -1.398438 4.0625 -1.640625 Z M 4.921875 -1.640625 C 4.921875 -1.503906 4.9375 -1.375 4.96875 -1.25 C 5 -1.132812 5.046875 -1.03125 5.109375 -0.9375 C 5.179688 -0.84375 5.269531 -0.765625 5.375 -0.703125 C 5.476562 -0.648438 5.601562 -0.625 5.75 -0.625 C 5.894531 -0.625 6.019531 -0.648438 6.125 -0.703125 C 6.226562 -0.765625 6.3125 -0.84375 6.375 -0.9375 C 6.4375 -1.03125 6.484375 -1.132812 6.515625 -1.25 C 6.546875 -1.375 6.5625 -1.503906 6.5625 -1.640625 L 6.5625 -2.125 C 6.5625 -2.25 6.546875 -2.375 6.515625 -2.5 C 6.484375 -2.625 6.4375 -2.734375 6.375 -2.828125 C 6.3125 -2.921875 6.222656 -2.992188 6.109375 -3.046875 C 6.003906 -3.109375 5.878906 -3.140625 5.734375 -3.140625 C 5.585938 -3.140625 5.460938 -3.109375 5.359375 -3.046875 C 5.253906 -2.992188 5.171875 -2.921875 5.109375 -2.828125 C 5.046875 -2.734375 5 -2.625 4.96875 -2.5 C 4.9375 -2.375 4.921875 -2.25 4.921875 -2.125 Z M 2.5 -1.1875 L 1.796875 -1.578125 L 5.375 -8.09375 L 6.0625 -7.703125 Z M 2.5 -1.1875 "/></g></g></g><g fill="#000000" fill-opacity="1"><g transform="translate(230.971353, 172.09488)"><g><path d="M 2.453125 -5.140625 L 3.28125 -5.140625 C 3.570312 -5.140625 3.828125 -5.175781 4.046875 -5.25 C 4.273438 -5.332031 4.46875 -5.441406 4.625 -5.578125 C 4.78125 -5.722656 4.894531 -5.890625 4.96875 -6.078125 C 5.050781 -6.273438 5.09375 -6.488281 5.09375 -6.71875 C 5.09375 -7.25 4.957031 -7.648438 4.6875 -7.921875 C 4.414062 -8.191406 4.015625 -8.328125 3.484375 -8.328125 C 3.242188 -8.328125 3.019531 -8.289062 2.8125 -8.21875 C 2.613281 -8.144531 2.441406 -8.035156 2.296875 -7.890625 C 2.148438 -7.753906 2.035156 -7.585938 1.953125 -7.390625 C 1.867188 -7.203125 1.828125 -6.988281 1.828125 -6.75 L 0.671875 -6.75 C 0.671875 -7.101562 0.738281 -7.429688 0.875 -7.734375 C 1.007812 -8.046875 1.195312 -8.316406 1.4375 -8.546875 C 1.6875 -8.773438 1.984375 -8.953125 2.328125 -9.078125 C 2.679688 -9.210938 3.066406 -9.28125 3.484375 -9.28125 C 3.898438 -9.28125 4.273438 -9.222656 4.609375 -9.109375 C 4.953125 -9.003906 5.242188 -8.84375 5.484375 -8.625 C 5.734375 -8.40625 5.921875 -8.132812 6.046875 -7.8125 C 6.179688 -7.488281 6.25 -7.113281 6.25 -6.6875 C 6.25 -6.507812 6.222656 -6.328125 6.171875 -6.140625 C 6.117188 -5.953125 6.035156 -5.769531 5.921875 -5.59375 C 5.804688 -5.414062 5.660156 -5.25 5.484375 -5.09375 C 5.304688 -4.9375 5.09375 -4.804688 4.84375 -4.703125 C 5.144531 -4.597656 5.394531 -4.46875 5.59375 -4.3125 C 5.789062 -4.164062 5.945312 -3.992188 6.0625 -3.796875 C 6.1875 -3.609375 6.269531 -3.40625 6.3125 -3.1875 C 6.363281 -2.96875 6.390625 -2.753906 6.390625 -2.546875 C 6.390625 -2.117188 6.316406 -1.738281 6.171875 -1.40625 C 6.023438 -1.082031 5.820312 -0.804688 5.5625 -0.578125 C 5.300781 -0.347656 4.992188 -0.171875 4.640625 -0.046875 C 4.285156 0.0664062 3.90625 0.125 3.5 0.125 C 3.09375 0.125 2.710938 0.0664062 2.359375 -0.046875 C 2.003906 -0.160156 1.695312 -0.328125 1.4375 -0.546875 C 1.175781 -0.765625 0.96875 -1.03125 0.8125 -1.34375 C 0.664062 -1.65625 0.59375 -2.015625 0.59375 -2.421875 L 1.75 -2.421875 C 1.75 -2.179688 1.789062 -1.960938 1.875 -1.765625 C 1.957031 -1.566406 2.070312 -1.394531 2.21875 -1.25 C 2.375 -1.113281 2.554688 -1.007812 2.765625 -0.9375 C 2.984375 -0.863281 3.226562 -0.828125 3.5 -0.828125 C 3.757812 -0.828125 3.992188 -0.859375 4.203125 -0.921875 C 4.421875 -0.992188 4.601562 -1.097656 4.75 -1.234375 C 4.90625 -1.378906 5.023438 -1.554688 5.109375 -1.765625 C 5.191406 -1.984375 5.234375 -2.238281 5.234375 -2.53125 C 5.234375 -2.8125 5.1875 -3.054688 5.09375 -3.265625 C 5 -3.472656 4.863281 -3.644531 4.6875 -3.78125 C 4.519531 -3.914062 4.316406 -4.015625 4.078125 -4.078125 C 3.835938 -4.148438 3.570312 -4.1875 3.28125 -4.1875 L 2.453125 -4.1875 Z M 2.453125 -5.140625 "/></g></g></g><g fill="#000000" fill-opacity="1"><g transform="translate(349.366658, 172.09488)"><g><path d="M 6.84375 -3.5 C 6.84375 -2.914062 6.773438 -2.398438 6.640625 -1.953125 C 6.503906 -1.503906 6.3125 -1.125 6.0625 -0.8125 C 5.8125 -0.507812 5.503906 -0.273438 5.140625 -0.109375 C 4.773438 0.046875 4.359375 0.125 3.890625 0.125 C 3.421875 0.125 3.003906 0.046875 2.640625 -0.109375 C 2.273438 -0.273438 1.960938 -0.507812 1.703125 -0.8125 C 1.441406 -1.125 1.242188 -1.503906 1.109375 -1.953125 C 0.972656 -2.398438 0.90625 -2.914062 0.90625 -3.5 L 0.90625 -5.640625 C 0.90625 -6.222656 0.972656 -6.738281 1.109375 -7.1875 C 1.242188 -7.644531 1.4375 -8.023438 1.6875 -8.328125 C 1.945312 -8.640625 2.257812 -8.875 2.625 -9.03125 C 2.988281 -9.195312 3.40625 -9.28125 3.875 -9.28125 C 4.34375 -9.28125 4.757812 -9.195312 5.125 -9.03125 C 5.488281 -8.875 5.796875 -8.640625 6.046875 -8.328125 C 6.304688 -8.023438 6.503906 -7.644531 6.640625 -7.1875 C 6.773438 -6.738281 6.84375 -6.222656 6.84375 -5.640625 Z M 2.078125 -3.734375 L 5.640625 -6.46875 C 5.578125 -7.070312 5.398438 -7.53125 5.109375 -7.84375 C 4.828125 -8.164062 4.414062 -8.328125 3.875 -8.328125 C 3.257812 -8.328125 2.804688 -8.117188 2.515625 -7.703125 C 2.222656 -7.296875 2.078125 -6.695312 2.078125 -5.90625 Z M 5.671875 -5.359375 L 2.109375 -2.640625 C 2.179688 -2.046875 2.363281 -1.59375 2.65625 -1.28125 C 2.945312 -0.96875 3.359375 -0.8125 3.890625 -0.8125 C 4.503906 -0.8125 4.953125 -1.019531 5.234375 -1.4375 C 5.523438 -1.863281 5.671875 -2.46875 5.671875 -3.25 Z M 5.671875 -5.359375 "/></g></g><g transform="translate(357.094378, 172.09488)"><g><path d="M 3.125 -0.75 C 3.125 -0.875 3.140625 -0.988281 3.171875 -1.09375 C 3.210938 -1.207031 3.269531 -1.304688 3.34375 -1.390625 C 3.425781 -1.472656 3.519531 -1.535156 3.625 -1.578125 C 3.738281 -1.628906 3.875 -1.65625 4.03125 -1.65625 C 4.175781 -1.65625 4.304688 -1.628906 4.421875 -1.578125 C 4.546875 -1.535156 4.644531 -1.472656 4.71875 -1.390625 C 4.789062 -1.304688 4.847656 -1.207031 4.890625 -1.09375 C 4.929688 -0.988281 4.953125 -0.875 4.953125 -0.75 C 4.953125 -0.632812 4.929688 -0.519531 4.890625 -0.40625 C 4.847656 -0.300781 4.789062 -0.207031 4.71875 -0.125 C 4.644531 -0.0507812 4.546875 0.00390625 4.421875 0.046875 C 4.304688 0.0976562 4.175781 0.125 4.03125 0.125 C 3.875 0.125 3.738281 0.0976562 3.625 0.046875 C 3.519531 0.00390625 3.425781 -0.0507812 3.34375 -0.125 C 3.269531 -0.207031 3.210938 -0.300781 3.171875 -0.40625 C 3.140625 -0.519531 3.125 -0.632812 3.125 -0.75 Z M 3.125 -0.75 "/></g></g><g transform="translate(364.822098, 172.09488)"><g><path d="M 1.515625 -4.59375 L 1.96875 -9.15625 L 6.65625 -9.15625 L 6.65625 -8.015625 L 2.953125 -8.015625 L 2.6875 -5.578125 C 2.875 -5.679688 3.09375 -5.773438 3.34375 -5.859375 C 3.59375 -5.941406 3.882812 -5.984375 4.21875 -5.984375 C 4.632812 -5.984375 5.007812 -5.90625 5.34375 -5.75 C 5.6875 -5.601562 5.972656 -5.394531 6.203125 -5.125 C 6.441406 -4.863281 6.625 -4.546875 6.75 -4.171875 C 6.875 -3.796875 6.9375 -3.378906 6.9375 -2.921875 C 6.9375 -2.484375 6.875 -2.078125 6.75 -1.703125 C 6.632812 -1.328125 6.457031 -1.003906 6.21875 -0.734375 C 5.988281 -0.460938 5.691406 -0.25 5.328125 -0.09375 C 4.972656 0.0507812 4.550781 0.125 4.0625 0.125 C 3.6875 0.125 3.332031 0.0703125 3 -0.03125 C 2.675781 -0.132812 2.382812 -0.289062 2.125 -0.5 C 1.863281 -0.707031 1.648438 -0.96875 1.484375 -1.28125 C 1.316406 -1.601562 1.210938 -1.976562 1.171875 -2.40625 L 2.28125 -2.40625 C 2.351562 -1.882812 2.546875 -1.488281 2.859375 -1.21875 C 3.171875 -0.957031 3.570312 -0.828125 4.0625 -0.828125 C 4.332031 -0.828125 4.578125 -0.875 4.796875 -0.96875 C 5.015625 -1.070312 5.191406 -1.210938 5.328125 -1.390625 C 5.472656 -1.578125 5.582031 -1.796875 5.65625 -2.046875 C 5.726562 -2.304688 5.765625 -2.59375 5.765625 -2.90625 C 5.765625 -3.1875 5.722656 -3.453125 5.640625 -3.703125 C 5.566406 -3.953125 5.453125 -4.164062 5.296875 -4.34375 C 5.140625 -4.53125 4.945312 -4.675781 4.71875 -4.78125 C 4.488281 -4.882812 4.226562 -4.9375 3.9375 -4.9375 C 3.75 -4.9375 3.582031 -4.921875 3.4375 -4.890625 C 3.300781 -4.867188 3.175781 -4.832031 3.0625 -4.78125 C 2.945312 -4.726562 2.835938 -4.664062 2.734375 -4.59375 C 2.640625 -4.519531 2.539062 -4.4375 2.4375 -4.34375 Z M 1.515625 -4.59375 "/></g></g><g transform="translate(372.549818, 172.09488)"><g><path d="M 0.28125 -7.5 C 0.28125 -7.738281 0.316406 -7.96875 0.390625 -8.1875 C 0.460938 -8.40625 0.566406 -8.59375 0.703125 -8.75 C 0.847656 -8.914062 1.023438 -9.046875 1.234375 -9.140625 C 1.441406 -9.234375 1.679688 -9.28125 1.953125 -9.28125 C 2.234375 -9.28125 2.476562 -9.234375 2.6875 -9.140625 C 2.894531 -9.046875 3.066406 -8.914062 3.203125 -8.75 C 3.347656 -8.59375 3.457031 -8.40625 3.53125 -8.1875 C 3.601562 -7.96875 3.640625 -7.738281 3.640625 -7.5 L 3.640625 -7.015625 C 3.640625 -6.773438 3.601562 -6.546875 3.53125 -6.328125 C 3.457031 -6.117188 3.347656 -5.929688 3.203125 -5.765625 C 3.066406 -5.609375 2.894531 -5.484375 2.6875 -5.390625 C 2.476562 -5.296875 2.238281 -5.25 1.96875 -5.25 C 1.695312 -5.25 1.453125 -5.296875 1.234375 -5.390625 C 1.023438 -5.484375 0.847656 -5.609375 0.703125 -5.765625 C 0.566406 -5.929688 0.460938 -6.117188 0.390625 -6.328125 C 0.316406 -6.546875 0.28125 -6.773438 0.28125 -7.015625 Z M 1.140625 -7.015625 C 1.140625 -6.890625 1.15625 -6.765625 1.1875 -6.640625 C 1.21875 -6.523438 1.265625 -6.421875 1.328125 -6.328125 C 1.398438 -6.234375 1.484375 -6.15625 1.578125 -6.09375 C 1.679688 -6.039062 1.8125 -6.015625 1.96875 -6.015625 C 2.113281 -6.015625 2.238281 -6.039062 2.34375 -6.09375 C 2.445312 -6.15625 2.53125 -6.234375 2.59375 -6.328125 C 2.65625 -6.421875 2.703125 -6.523438 2.734375 -6.640625 C 2.765625 -6.765625 2.78125 -6.890625 2.78125 -7.015625 L 2.78125 -7.5 C 2.78125 -7.632812 2.765625 -7.765625 2.734375 -7.890625 C 2.703125 -8.015625 2.648438 -8.125 2.578125 -8.21875 C 2.515625 -8.3125 2.429688 -8.382812 2.328125 -8.4375 C 2.234375 -8.5 2.109375 -8.53125 1.953125 -8.53125 C 1.804688 -8.53125 1.679688 -8.5 1.578125 -8.4375 C 1.472656 -8.382812 1.390625 -8.3125 1.328125 -8.21875 C 1.265625 -8.125 1.21875 -8.015625 1.1875 -7.890625 C 1.15625 -7.765625 1.140625 -7.632812 1.140625 -7.5 Z M 4.0625 -2.125 C 4.0625 -2.363281 4.097656 -2.585938 4.171875 -2.796875 C 4.242188 -3.015625 4.347656 -3.203125 4.484375 -3.359375 C 4.628906 -3.523438 4.804688 -3.65625 5.015625 -3.75 C 5.222656 -3.84375 5.460938 -3.890625 5.734375 -3.890625 C 6.015625 -3.890625 6.257812 -3.84375 6.46875 -3.75 C 6.675781 -3.65625 6.847656 -3.523438 6.984375 -3.359375 C 7.128906 -3.203125 7.238281 -3.015625 7.3125 -2.796875 C 7.394531 -2.585938 7.4375 -2.363281 7.4375 -2.125 L 7.4375 -1.640625 C 7.4375 -1.398438 7.394531 -1.171875 7.3125 -0.953125 C 7.238281 -0.742188 7.128906 -0.554688 6.984375 -0.390625 C 6.847656 -0.234375 6.675781 -0.109375 6.46875 -0.015625 C 6.257812 0.078125 6.019531 0.125 5.75 0.125 C 5.476562 0.125 5.234375 0.078125 5.015625 -0.015625 C 4.804688 -0.109375 4.628906 -0.234375 4.484375 -0.390625 C 4.347656 -0.554688 4.242188 -0.742188 4.171875 -0.953125 C 4.097656 -1.171875 4.0625 -1.398438 4.0625 -1.640625 Z M 4.921875 -1.640625 C 4.921875 -1.503906 4.9375 -1.375 4.96875 -1.25 C 5 -1.132812 5.046875 -1.03125 5.109375 -0.9375 C 5.179688 -0.84375 5.269531 -0.765625 5.375 -0.703125 C 5.476562 -0.648438 5.601562 -0.625 5.75 -0.625 C 5.894531 -0.625 6.019531 -0.648438 6.125 -0.703125 C 6.226562 -0.765625 6.3125 -0.84375 6.375 -0.9375 C 6.4375 -1.03125 6.484375 -1.132812 6.515625 -1.25 C 6.546875 -1.375 6.5625 -1.503906 6.5625 -1.640625 L 6.5625 -2.125 C 6.5625 -2.25 6.546875 -2.375 6.515625 -2.5 C 6.484375 -2.625 6.4375 -2.734375 6.375 -2.828125 C 6.3125 -2.921875 6.222656 -2.992188 6.109375 -3.046875 C 6.003906 -3.109375 5.878906 -3.140625 5.734375 -3.140625 C 5.585938 -3.140625 5.460938 -3.109375 5.359375 -3.046875 C 5.253906 -2.992188 5.171875 -2.921875 5.109375 -2.828125 C 5.046875 -2.734375 5 -2.625 4.96875 -2.5 C 4.9375 -2.375 4.921875 -2.25 4.921875 -2.125 Z M 2.5 -1.1875 L 1.796875 -1.578125 L 5.375 -8.09375 L 6.0625 -7.703125 Z M 2.5 -1.1875 "/></g></g></g></svg>